<?xml version="1.0" encoding="UTF-8"?>
<svg version="1.1" xmlns="http://www.w3.org/2000/svg" width="1024" height="1024">
<path d="M0 0 C3.5 0.875 3.5 0.875 5.13378906 2.51649475 C6.86495447 5.505025 7.3098428 8.07442905 7.859375 11.48608398 C7.96915837 12.14770853 8.07894175 12.80933308 8.19205189 13.49100685 C8.55562883 15.69940683 8.9028012 17.91006439 9.25 20.12109375 C9.50633205 21.69973715 9.76365413 23.27822007 10.02189636 24.85655212 C10.71664392 29.12054108 11.39724758 33.3866826 12.07555771 37.65331268 C12.78404806 42.09209881 13.50677603 46.52856525 14.2277832 50.96533203 C16.98295844 67.95398226 19.67650847 84.95225885 22.34167099 101.95524025 C22.72562426 104.40271302 23.11056251 106.85002867 23.49588013 109.29728699 C23.74530461 110.88186578 23.99472482 112.46644524 24.24414062 114.05102539 C24.36526152 114.82022025 24.48638241 115.58941511 24.61117363 116.38191891 C25.3276822 120.93899078 26.03443098 125.49745032 26.73382092 130.05717945 C27.16675962 132.86942003 27.60673951 135.68052697 28.04848671 138.49139595 C28.34800525 140.41305303 28.63825648 142.33614733 28.92826843 144.25926208 C29.10686905 145.38848587 29.28546967 146.51770966 29.46948242 147.68115234 C29.62124435 148.66642914 29.77300629 149.65170593 29.92936707 150.6668396 C30.21183037 151.759879 30.21183037 151.759879 30.5 152.875 C31.16 153.205 31.82 153.535 32.5 153.875 C32.5 154.535 32.5 155.195 32.5 155.875 C31.84 155.875 31.18 155.875 30.5 155.875 C30.7165625 156.87080078 30.7165625 156.87080078 30.9375 157.88671875 C31.123125 158.76972656 31.30875 159.65273438 31.5 160.5625 C31.685625 161.43261719 31.87125 162.30273438 32.0625 163.19921875 C32.48972047 165.81212964 32.57616201 168.23313038 32.5 170.875 C33.16 171.205 33.82 171.535 34.5 171.875 C34.84375 173.921875 34.84375 173.921875 35 176.625 C35.31415433 181.01173683 35.84431569 185.28576052 36.5625 189.625 C37.28725376 194.1292104 37.71177113 198.32192077 37.5 202.875 C38.49 203.205 39.48 203.535 40.5 203.875 C39.84 203.875 39.18 203.875 38.5 203.875 C39.11212322 207.50229789 39.74186552 211.12631543 40.375 214.75 C40.54902344 215.78253906 40.72304688 216.81507813 40.90234375 217.87890625 C41.07636719 218.86503906 41.25039063 219.85117187 41.4296875 220.8671875 C41.58679199 221.77839355 41.74389648 222.68959961 41.90576172 223.62841797 C42.34667689 226.05686393 42.34667689 226.05686393 44.5 227.875 C44.83 178.705 45.16 129.535 45.5 78.875 C46.16 78.545 46.82 78.215 47.5 77.875 C48.16 78.205 48.82 78.535 49.5 78.875 C49.83 78.215 50.16 77.555 50.5 76.875 C50.5 77.535 50.5 78.195 50.5 78.875 C51.39820969 78.86611755 52.29641937 78.85723511 53.22184753 78.8480835 C61.7383925 78.76751954 70.25480718 78.70682484 78.77164745 78.66775131 C83.14895742 78.646987 87.52594924 78.61887687 91.90307617 78.57324219 C96.13712446 78.52938173 100.37086917 78.5057793 104.60512733 78.49549103 C106.21047041 78.48817101 107.81579923 78.4738795 109.42101097 78.45207977 C126.21608793 78.23332326 140.63887832 81.65814424 153.16796875 93.37890625 C162.00466636 102.83728108 165.91867217 114.77231748 165.77734375 127.5546875 C164.777266 139.52744931 159.62675544 150.40140037 150.75 158.4375 C148.69295668 160.17619138 146.90584078 161.67207961 144.5 162.875 C145.20125 163.2875 145.9025 163.7 146.625 164.125 C156.4398123 170.09923357 163.66889194 176.31610095 168.5 186.875 C168.97953125 187.85146484 168.97953125 187.85146484 169.46875 188.84765625 C173.69301405 198.99762404 172.68825959 212.17462929 168.7578125 222.234375 C166.73558428 226.47979821 164.43549627 230.20218424 161.5 233.875 C160.70722656 234.89013672 160.70722656 234.89013672 159.8984375 235.92578125 C155.89179231 240.47076423 151.30843883 243.40040836 146 246.1875 C145.40268066 246.51306885 144.80536133 246.8386377 144.18994141 247.17407227 C131.84593837 253.24818069 117.35362713 253.34161059 103.890625 253.421875 C102.26396387 253.44133076 100.63731551 253.46188121 99.01068115 253.48345947 C95.63930747 253.52535724 92.26802286 253.55820637 88.89648438 253.58349609 C84.57901731 253.61605633 80.26196178 253.66578852 75.94473648 253.72141647 C72.60252167 253.76367287 69.26026554 253.80013627 65.91796112 253.8345108 C64.32475394 253.85100051 62.73155747 253.86856214 61.13837433 253.88722992 C58.92331096 253.91169764 56.70830782 253.92910933 54.49316406 253.94433594 C52.60697357 253.96074127 52.60697357 253.96074127 50.68267822 253.97747803 C48.04341931 253.89249738 46.00853756 253.58889667 43.5 252.875 C41.70721438 252.92916271 39.91520758 253.01467908 38.125 253.125 C34.13336146 253.18912271 31.88982237 252.98962234 28.8125 250.375 C28.049375 249.55 27.28625 248.725 26.5 247.875 C27.16 247.545 27.82 247.215 28.5 246.875 C28.2834375 245.57304688 28.066875 244.27109375 27.84375 242.9296875 C27.56225184 241.20316544 27.28101565 239.47660066 27 237.75 C26.85691406 236.8940625 26.71382812 236.038125 26.56640625 235.15625 C25.84304266 230.67828495 25.32081184 226.42936565 25.5 221.875 C24.84 221.545 24.18 221.215 23.5 220.875 C23.15391541 218.79118347 23.15391541 218.79118347 22.99584961 216.05932617 C22.54200255 209.9356243 21.61122619 203.97320395 20.56640625 197.92578125 C20.1652347 195.55673022 19.76411402 193.18767057 19.36303711 190.81860352 C19.15113739 189.57619904 18.93923767 188.33379456 18.72091675 187.05374146 C17.58555069 180.38684039 16.4672485 173.71709232 15.3515625 167.046875 C15.23562933 166.35411531 15.11969616 165.66135563 15.00024986 164.94760323 C12.33249557 148.99116973 9.77721418 133.0175033 7.26771164 117.03548813 C6.93980704 114.9521577 6.60977687 112.8691748 6.27908325 110.7862854 C5.65762077 106.87022139 5.0450394 102.95279747 4.43359375 99.03515625 C4.2517453 97.89270447 4.06989685 96.75025269 3.88253784 95.57318115 C2.84088522 88.83059613 2.17647341 82.17039385 1.84608459 75.35374451 C1.73187668 74.53575882 1.61766876 73.71777313 1.5 72.875 C0.84 72.545 0.18 72.215 -0.5 71.875 C-0.5 70.555 -0.5 69.235 -0.5 67.875 C-3.95712562 90.23529376 -7.38159422 112.60039727 -10.54119873 135.00497437 C-10.80408827 136.86736842 -11.06859844 138.72953448 -11.33477783 140.59146118 C-11.70612005 143.19440529 -12.07088154 145.7981848 -12.43359375 148.40234375 C-12.59714104 149.5400975 -12.59714104 149.5400975 -12.76399231 150.70083618 C-13.37210072 155.138252 -13.60050434 159.3957462 -13.5 163.875 C-14.16 163.875 -14.82 163.875 -15.5 163.875 C-15.54649185 164.62899078 -15.5929837 165.38298157 -15.6408844 166.15982056 C-16.25322192 175.09851739 -17.40043021 183.91701578 -18.71484375 192.7734375 C-18.93307632 194.26262809 -19.15105319 195.75185618 -19.36878967 197.24111938 C-19.82229784 200.33582446 -20.27899904 203.43003629 -20.73803711 206.52392578 C-21.32374336 210.47348134 -21.90108029 214.42420821 -22.47603512 218.37534142 C-22.92301834 221.44030197 -23.37452336 224.50458351 -23.82736397 227.56868362 C-24.04205639 229.02521718 -24.25534365 230.48195862 -24.46714592 231.93891525 C-24.76377729 233.97479981 -25.06654173 236.00968418 -25.37084961 238.04443359 C-25.54104111 239.19769135 -25.7112326 240.3509491 -25.88658142 241.53915405 C-26.5387066 245.08549125 -27.36076384 248.45317314 -28.5 251.875 C-30.4453125 253.21484375 -30.4453125 253.21484375 -32.625 253.8125 C-33.34945312 254.02777344 -34.07390625 254.24304688 -34.8203125 254.46484375 C-35.65175781 254.66787109 -35.65175781 254.66787109 -36.5 254.875 C-36.5 254.215 -36.5 253.555 -36.5 252.875 C-37.098125 252.7925 -37.69625 252.71 -38.3125 252.625 C-41.22370723 251.62687181 -41.96084879 250.52318922 -43.5 247.875 C-43.63793945 245.09806824 -43.63793945 245.09806824 -43.30078125 241.93823242 C-43.1817041 240.7823764 -43.06262695 239.62652039 -42.93994141 238.43563843 C-42.25594705 232.89977264 -41.51748518 227.37925786 -40.6875 221.86328125 C-40.51371826 220.68783249 -40.33993652 219.51238373 -40.16088867 218.30131531 C-39.79662534 215.84483797 -39.43014847 213.38868792 -39.06152344 210.93286133 C-38.49586148 207.15989606 -37.9388689 203.38571976 -37.3828125 199.61132812 C-37.02655079 197.21607005 -36.66979799 194.82088496 -36.3125 192.42578125 C-36.14580811 191.29570145 -35.97911621 190.16562164 -35.80737305 189.001297 C-35.65051025 187.96228745 -35.49364746 186.92327789 -35.33203125 185.8527832 C-35.19514893 184.93713089 -35.0582666 184.02147858 -34.91723633 183.07807922 C-34.5 180.875 -34.5 180.875 -33.5 178.875 C-34.49 179.205 -35.48 179.535 -36.5 179.875 C-39.00980874 179.96585515 -41.49119921 180.0010815 -44.00073242 179.98852539 C-44.76194901 179.98867142 -45.52316559 179.98881744 -46.30744934 179.9889679 C-48.8234848 179.98827124 -51.33944622 179.98049038 -53.85546875 179.97265625 C-55.59995992 179.97079119 -57.3444516 179.9693677 -59.08894348 179.96836853 C-63.68058722 179.96455026 -68.27219933 179.95472584 -72.86383057 179.94366455 C-77.54918998 179.93343561 -82.23455451 179.92886773 -86.91992188 179.92382812 C-96.11329515 179.91310298 -105.30664494 179.89603481 -114.5 179.875 C-114.51030746 180.77480087 -114.52061493 181.67460175 -114.53123474 182.60166931 C-114.62903341 191.06320786 -114.7315222 199.5246736 -114.83933926 207.98609066 C-114.89460785 212.33664806 -114.94803399 216.68721212 -114.99731445 221.0378418 C-115.04490014 225.2329621 -115.09724058 229.42799812 -115.15294075 233.62301826 C-115.17339066 235.22704545 -115.19209929 236.83109577 -115.20907402 238.4351635 C-115.23305997 240.67422769 -115.26312194 242.91313116 -115.29467773 245.15209961 C-115.31022202 246.42895126 -115.3257663 247.70580292 -115.34178162 249.02134705 C-115.5 251.875 -115.5 251.875 -116.5 252.875 C-118.8756852 252.9633967 -121.22208674 252.99030305 -123.59765625 252.97265625 C-124.66094398 252.97053383 -124.66094398 252.97053383 -125.74571228 252.96836853 C-128.01801712 252.96275443 -130.29022475 252.95019963 -132.5625 252.9375 C-134.09960796 252.93248681 -135.63671745 252.92792359 -137.17382812 252.92382812 C-140.94925642 252.91278042 -144.72461171 252.89550641 -148.5 252.875 C-149.41146838 243.92180332 -149.64375921 235.05103519 -149.62939453 226.05712891 C-149.63075312 224.61011206 -149.63253561 223.16309557 -149.63470459 221.71607971 C-149.63922531 217.82133765 -149.63751141 213.92662237 -149.6343255 210.0318799 C-149.63177301 205.93184627 -149.63414752 201.83181474 -149.63571167 197.73178101 C-149.6375254 190.84755039 -149.63514845 183.96333054 -149.63037109 177.07910156 C-149.62493435 169.15386548 -149.62669009 161.22865516 -149.6321975 153.30341971 C-149.63675658 146.46564599 -149.63736543 139.62787997 -149.63475883 132.79010522 C-149.63321081 128.72094259 -149.63296128 124.65179199 -149.63629532 120.58263016 C-149.63921473 116.75267539 -149.63712474 112.92275334 -149.63140106 109.09280205 C-149.63009486 107.69897325 -149.63043043 106.30514163 -149.63266373 104.91131401 C-149.6354612 102.98568709 -149.63130816 101.06005403 -149.62698364 99.13442993 C-149.62660662 98.06414362 -149.62622959 96.99385731 -149.62584114 95.89113808 C-149.43739481 89.87699603 -148.92870018 83.87680246 -148.5 77.875 C-132.165 78.37 -132.165 78.37 -115.5 78.875 C-115.5 102.635 -115.5 126.395 -115.5 150.875 C-87.12 150.875 -58.74 150.875 -29.5 150.875 C-28.84 144.935 -28.18 138.995 -27.5 132.875 C-26.74571042 127.43318798 -25.9709059 121.99837033 -25.15234375 116.56640625 C-24.93318037 115.09719494 -24.71423687 113.62795082 -24.49549866 112.15867615 C-24.04300077 109.12425843 -23.58820491 106.0901976 -23.1315918 103.05639648 C-22.54683713 99.17019508 -21.9676318 95.28318966 -21.39002132 91.39592075 C-20.94164592 88.3819538 -20.49064896 85.36838381 -20.03882027 82.35493279 C-19.82396436 80.92011752 -19.60986901 79.48518815 -19.39655876 78.05014229 C-19.10026246 76.05980778 -18.80010194 74.07004968 -18.49975586 72.08032227 C-18.33035995 70.95102798 -18.16096405 69.8217337 -17.98643494 68.65821838 C-17.5 65.875 -17.5 65.875 -16.5 62.875 C-17.16 62.545 -17.82 62.215 -18.5 61.875 C-17.84 61.875 -17.18 61.875 -16.5 61.875 C-16.4189653 61.28555099 -16.3379306 60.69610199 -16.25444031 60.08879089 C-15.40300583 53.90602836 -14.54138803 47.72474371 -13.67407227 41.54418945 C-13.35249299 39.2431147 -13.03343701 36.94168575 -12.71704102 34.63989258 C-12.259544 31.31493398 -11.79272706 27.99139151 -11.32421875 24.66796875 C-11.18658615 23.6529277 -11.04895355 22.63788666 -10.90715027 21.59208679 C-8.96042102 7.95447319 -8.96042102 7.95447319 -6.5 1.875 C-3.5 -0.125 -3.5 -0.125 0 0 Z M77.5 105.875 C77.5 120.725 77.5 135.575 77.5 150.875 C83.213125 150.9575 88.92625 151.04 94.8125 151.125 C97.48146362 151.17962402 97.48146362 151.17962402 100.2043457 151.23535156 C114.44822276 151.43823082 114.44822276 151.43823082 126.71801758 144.88964844 C132.54246515 138.72521656 133.9833788 133.25830708 133.80859375 124.87890625 C133.17383862 118.70008735 130.63900973 114.66369856 126.125 110.5 C117.95536191 104.12664598 107.46051534 104.79324975 97.5625 104.75 C96.47243652 104.74299072 96.47243652 104.74299072 95.36035156 104.73583984 C89.30835081 104.75330012 83.59316803 105.32107563 77.5 105.875 Z M77.5 179.875 C77.4072167 181.25660115 77.38252957 182.64288038 77.38647461 184.02758789 C77.38655014 184.90842545 77.38662567 185.789263 77.38670349 186.6967926 C77.39186478 187.65407761 77.39702606 188.61136261 77.40234375 189.59765625 C77.4037587 190.57286728 77.40517365 191.54807831 77.40663147 192.55284119 C77.41224867 195.68109143 77.42480407 198.80927123 77.4375 201.9375 C77.44251278 204.05273334 77.44707607 206.16796781 77.45117188 208.28320312 C77.46222369 213.48049296 77.47897854 218.67774145 77.5 223.875 C81.68734761 225.45116059 85.13805889 226.12329505 89.60546875 226.10546875 C91.32926758 226.10256836 91.32926758 226.10256836 93.08789062 226.09960938 C94.27576172 226.08736328 95.46363281 226.07511719 96.6875 226.0625 C97.85603516 226.06185547 99.02457031 226.06121094 100.22851562 226.06054688 C117.07884508 226.50730566 117.07884508 226.50730566 131.4765625 219.04296875 C137.37053922 212.70027364 139.00712249 207.22789835 138.80859375 198.62109375 C138.03435042 191.73130816 134.58824637 187.42857819 129.37890625 183.1015625 C120.07951744 177.03085962 107.28031807 178.71424136 96.62597656 178.74462891 C94.34433602 178.75007317 92.06288522 178.74460831 89.78125 178.73828125 C88.33072873 178.73894066 86.88020758 178.74021897 85.4296875 178.7421875 C84.12241699 178.74331543 82.81514648 178.74444336 81.46826172 178.74560547 C78.6146666 178.53511993 78.6146666 178.53511993 77.5 179.875 Z " fill="#666767" transform="translate(317.5,340.125)"/>
<path d="M0 0 C10.59721783 -0.11638566 21.194281 -0.20496313 31.79201031 -0.25906086 C36.71419202 -0.28503888 41.63593312 -0.32021862 46.55786133 -0.37719727 C51.31711404 -0.43194135 56.07594574 -0.46150899 60.83548927 -0.47438622 C62.64180939 -0.48355064 64.44810919 -0.50144458 66.25424767 -0.52865028 C81.37184666 -0.74709249 93.50461916 1.18081803 105 12 C114.37944155 21.11362741 118.84732428 31.77939042 119.375 44.75 C119.13932829 56.32737276 114.85303287 68.03839485 106.68359375 76.359375 C101.01163366 81.49418317 101.01163366 81.49418317 98 83 C98.70125 83.4125 99.4025 83.825 100.125 84.25 C109.9398123 90.22423357 117.16889194 96.44110095 122 107 C122.3196875 107.65097656 122.639375 108.30195312 122.96875 108.97265625 C127.19301405 119.12262404 126.18825959 132.29962929 122.2578125 142.359375 C120.23558428 146.60479821 117.93549627 150.32718424 115 154 C114.47148437 154.67675781 113.94296875 155.35351562 113.3984375 156.05078125 C109.39179231 160.59576423 104.80843883 163.52540836 99.5 166.3125 C98.90268066 166.63806885 98.30536133 166.9636377 97.68994141 167.29907227 C85.31251191 173.38962884 70.78267683 173.46687657 57.28515625 173.546875 C55.65130822 173.56632531 54.01747296 173.58687529 52.38365173 173.60845947 C48.99968942 173.65034731 45.61581583 173.68320471 42.23168945 173.70849609 C37.88702617 173.74113332 33.54276707 173.79086791 29.19834232 173.84641647 C25.84338043 173.88855075 22.48837837 173.92506902 19.13332939 173.9595108 C17.52927004 173.97605541 15.92522093 173.99362453 14.32118416 174.01222992 C12.09832537 174.03654514 9.87552469 174.05404614 7.65258789 174.06933594 C6.38846573 174.08027283 5.12434357 174.09120972 3.82191467 174.10247803 C1 174 1 174 0 173 C-0.09703132 170.77241743 -0.12186673 168.54169074 -0.12025452 166.31199646 C-0.12110894 165.60468748 -0.12196337 164.89737849 -0.12284368 164.1686359 C-0.12450055 161.78093718 -0.11897377 159.39330757 -0.11352539 157.00561523 C-0.11324354 155.30105593 -0.11340122 153.59649649 -0.1139679 151.89193726 C-0.11425594 147.249572 -0.10835806 142.60723235 -0.10139394 137.96487308 C-0.09516159 133.11884105 -0.0945567 128.27280849 -0.09336853 123.42677307 C-0.09025486 114.24344036 -0.082041 105.0601195 -0.07201904 95.87679201 C-0.060859 85.42473229 -0.05534773 74.97267202 -0.05032361 64.52060783 C-0.03985841 43.01373193 -0.02225829 21.50686671 0 0 Z M31 26 C31 40.85 31 55.7 31 71 C36.713125 71.0825 42.42625 71.165 48.3125 71.25 C50.98146362 71.30462402 50.98146362 71.30462402 53.7043457 71.36035156 C67.94822276 71.56323082 67.94822276 71.56323082 80.21801758 65.01464844 C86.04246515 58.85021656 87.4833788 53.38330708 87.30859375 45.00390625 C86.67383862 38.82508735 84.13900973 34.78869856 79.625 30.625 C71.45536191 24.25164598 60.96051534 24.91824975 51.0625 24.875 C49.97243652 24.86799072 49.97243652 24.86799072 48.86035156 24.86083984 C42.80835081 24.87830012 37.09316803 25.44607563 31 26 Z M31 100 C30.9072167 101.38160115 30.88252957 102.76788038 30.88647461 104.15258789 C30.88655014 105.03342545 30.88662567 105.914263 30.88670349 106.8217926 C30.89186478 107.77907761 30.89702606 108.73636261 30.90234375 109.72265625 C30.9037587 110.69786728 30.90517365 111.67307831 30.90663147 112.67784119 C30.91224867 115.80609143 30.92480407 118.93427123 30.9375 122.0625 C30.94251278 124.17773334 30.94707607 126.29296781 30.95117188 128.40820312 C30.96222369 133.60549296 30.97897854 138.80274145 31 144 C35.18734761 145.57616059 38.63805889 146.24829505 43.10546875 146.23046875 C44.82926758 146.22756836 44.82926758 146.22756836 46.58789062 146.22460938 C47.77576172 146.21236328 48.96363281 146.20011719 50.1875 146.1875 C51.35603516 146.18685547 52.52457031 146.18621094 53.72851562 146.18554688 C70.57884508 146.63230566 70.57884508 146.63230566 84.9765625 139.16796875 C90.87053922 132.82527364 92.50712249 127.35289835 92.30859375 118.74609375 C91.53435042 111.85630816 88.08824637 107.55357819 82.87890625 103.2265625 C73.57951744 97.15585962 60.78031807 98.83924136 50.12597656 98.86962891 C47.84433602 98.87507317 45.56288522 98.86960831 43.28125 98.86328125 C41.83072873 98.86394066 40.38020758 98.86521897 38.9296875 98.8671875 C37.62241699 98.86831543 36.31514648 98.86944336 34.96826172 98.87060547 C32.1146666 98.66011993 32.1146666 98.66011993 31 100 Z " fill="#636464" transform="translate(364,420)"/>
<path d="M0 0 C3.5 0.875 3.5 0.875 5.13378906 2.51649475 C6.86495447 5.505025 7.3098428 8.07442905 7.859375 11.48608398 C7.96915837 12.14770853 8.07894175 12.80933308 8.19205189 13.49100685 C8.55562883 15.69940683 8.9028012 17.91006439 9.25 20.12109375 C9.50633205 21.69973715 9.76365413 23.27822007 10.02189636 24.85655212 C10.71664392 29.12054108 11.39724758 33.3866826 12.07555771 37.65331268 C12.78404806 42.09209881 13.50677603 46.52856525 14.2277832 50.96533203 C16.98295844 67.95398226 19.67650847 84.95225885 22.34167099 101.95524025 C22.72562426 104.40271302 23.11056251 106.85002867 23.49588013 109.29728699 C23.74530461 110.88186578 23.99472482 112.46644524 24.24414062 114.05102539 C24.36526152 114.82022025 24.48638241 115.58941511 24.61117363 116.38191891 C25.3276822 120.93899078 26.03443098 125.49745032 26.73382092 130.05717945 C27.16675962 132.86942003 27.60673951 135.68052697 28.04848671 138.49139595 C28.34800525 140.41305303 28.63825648 142.33614733 28.92826843 144.25926208 C29.10686905 145.38848587 29.28546967 146.51770966 29.46948242 147.68115234 C29.62124435 148.66642914 29.77300629 149.65170593 29.92936707 150.6668396 C30.21183037 151.759879 30.21183037 151.759879 30.5 152.875 C31.16 153.205 31.82 153.535 32.5 153.875 C32.5 154.535 32.5 155.195 32.5 155.875 C31.84 155.875 31.18 155.875 30.5 155.875 C30.7165625 156.87080078 30.7165625 156.87080078 30.9375 157.88671875 C31.123125 158.76972656 31.30875 159.65273438 31.5 160.5625 C31.685625 161.43261719 31.87125 162.30273438 32.0625 163.19921875 C32.48972047 165.81212964 32.57616201 168.23313038 32.5 170.875 C33.16 171.205 33.82 171.535 34.5 171.875 C34.84375 173.921875 34.84375 173.921875 35 176.625 C35.31415433 181.01173683 35.84431569 185.28576052 36.5625 189.625 C37.28725376 194.1292104 37.71177113 198.32192077 37.5 202.875 C38.49 203.205 39.48 203.535 40.5 203.875 C39.84 203.875 39.18 203.875 38.5 203.875 C39.11212322 207.50229789 39.74186552 211.12631543 40.375 214.75 C40.63603516 216.29880859 40.63603516 216.29880859 40.90234375 217.87890625 C41.16337891 219.35810547 41.16337891 219.35810547 41.4296875 220.8671875 C41.58679199 221.77839355 41.74389648 222.68959961 41.90576172 223.62841797 C42.34667689 226.05686393 42.34667689 226.05686393 44.5 227.875 C44.83 178.705 45.16 129.535 45.5 78.875 C46.16 78.545 46.82 78.215 47.5 77.875 C48.16 78.205 48.82 78.535 49.5 78.875 C49.83 78.215 50.16 77.555 50.5 76.875 C50.5 77.535 50.5 78.195 50.5 78.875 C74.92 78.875 99.34 78.875 124.5 78.875 C124.5 79.205 124.5 79.535 124.5 79.875 C98.76 79.875 73.02 79.875 46.5 79.875 C46.5 136.635 46.5 193.395 46.5 251.875 C41.87107161 253.41797613 37.32846242 253.52154625 32.5 252.875 C29.91668974 251.47038643 28.52594419 250.06520993 26.5 247.875 C27.16 247.545 27.82 247.215 28.5 246.875 C28.2834375 245.57304688 28.066875 244.27109375 27.84375 242.9296875 C27.56225184 241.20316544 27.28101565 239.47660066 27 237.75 C26.85691406 236.8940625 26.71382813 236.038125 26.56640625 235.15625 C25.84304266 230.67828495 25.32081184 226.42936565 25.5 221.875 C24.84 221.545 24.18 221.215 23.5 220.875 C23.15391541 218.79118347 23.15391541 218.79118347 22.99584961 216.05932617 C22.54200255 209.9356243 21.61122619 203.97320395 20.56640625 197.92578125 C20.1652347 195.55673022 19.76411402 193.18767057 19.36303711 190.81860352 C19.15113739 189.57619904 18.93923767 188.33379456 18.72091675 187.05374146 C17.58555069 180.38684039 16.4672485 173.71709232 15.3515625 167.046875 C15.23562933 166.35411531 15.11969616 165.66135563 15.00024986 164.94760323 C12.33249557 148.99116973 9.77721418 133.0175033 7.26771164 117.03548813 C6.93980704 114.9521577 6.60977687 112.8691748 6.27908325 110.7862854 C5.65762077 106.87022139 5.0450394 102.95279747 4.43359375 99.03515625 C4.2517453 97.89270447 4.06989685 96.75025269 3.88253784 95.57318115 C2.84088522 88.83059613 2.17647341 82.17039385 1.84608459 75.35374451 C1.73187668 74.53575882 1.61766876 73.71777313 1.5 72.875 C0.51 72.38 0.51 72.38 -0.5 71.875 C-0.5 70.555 -0.5 69.235 -0.5 67.875 C-3.95712562 90.23529376 -7.38159422 112.60039727 -10.54119873 135.00497437 C-10.80408827 136.86736842 -11.06859844 138.72953448 -11.33477783 140.59146118 C-11.70612005 143.19440529 -12.07088154 145.7981848 -12.43359375 148.40234375 C-12.54262527 149.16084625 -12.6516568 149.91934875 -12.76399231 150.70083618 C-13.37210072 155.138252 -13.60050434 159.3957462 -13.5 163.875 C-14.16 163.875 -14.82 163.875 -15.5 163.875 C-15.54649185 164.62899078 -15.5929837 165.38298157 -15.6408844 166.15982056 C-16.25322192 175.09851739 -17.40043021 183.91701578 -18.71484375 192.7734375 C-18.93307632 194.26262809 -19.15105319 195.75185618 -19.36878967 197.24111938 C-19.82229784 200.33582446 -20.27899904 203.43003629 -20.73803711 206.52392578 C-21.32374336 210.47348134 -21.90108029 214.42420821 -22.47603512 218.37534142 C-22.92301834 221.44030197 -23.37452336 224.50458351 -23.82736397 227.56868362 C-24.04205639 229.02521718 -24.25534365 230.48195862 -24.46714592 231.93891525 C-24.76377729 233.97479981 -25.06654173 236.00968418 -25.37084961 238.04443359 C-25.54104111 239.19769135 -25.7112326 240.3509491 -25.88658142 241.53915405 C-26.5387066 245.08549125 -27.36076384 248.45317314 -28.5 251.875 C-30.4453125 253.21484375 -30.4453125 253.21484375 -32.625 253.8125 C-33.34945313 254.02777344 -34.07390625 254.24304688 -34.8203125 254.46484375 C-35.37460937 254.60019531 -35.92890625 254.73554687 -36.5 254.875 C-36.5 254.215 -36.5 253.555 -36.5 252.875 C-37.098125 252.7925 -37.69625 252.71 -38.3125 252.625 C-41.22411084 251.62673343 -41.96109888 250.52396691 -43.5 247.875 C-43.63670349 245.09065247 -43.63670349 245.09065247 -43.29858398 241.92504883 C-43.17949677 240.76913239 -43.06040955 239.61321594 -42.93771362 238.42227173 C-42.2638866 232.96151516 -41.53987687 227.51548758 -40.72265625 222.07421875 C-40.55124619 220.91300003 -40.37983612 219.75178131 -40.20323181 218.55537415 C-39.84318091 216.12407181 -39.48089844 213.69309897 -39.11645508 211.26245117 C-38.56144415 207.5554478 -38.01560282 203.8471735 -37.47070312 200.13867188 C-37.11773214 197.76293985 -36.76423483 195.38728595 -36.41015625 193.01171875 C-36.24862564 191.91260666 -36.08709503 190.81349457 -35.92066956 189.68107605 C-35.25288497 185.25768141 -34.56892762 180.89618003 -33.43920898 176.56494141 C-32.51194941 172.92194655 -31.98097722 169.43238432 -31.5625 165.69921875 C-31.39341576 164.24823125 -31.2237873 162.79730709 -31.05371094 161.34643555 C-30.96440308 160.57181976 -30.87509521 159.79720398 -30.78308105 158.99911499 C-28.46659883 139.0600367 -25.56336774 119.21100758 -22.59362793 99.36111832 C-22.24965117 97.06016658 -21.90692198 94.75903184 -21.56445312 92.45785522 C-21.01948356 88.79870685 -20.47118089 85.14007369 -19.91999054 81.4818573 C-19.71434139 80.11541912 -19.50947086 78.74886351 -19.30541229 77.38218689 C-19.02365845 75.49812415 -18.73800116 73.61464638 -18.45214844 71.73120117 C-18.29180115 70.6682634 -18.13145386 69.60532562 -17.96624756 68.51017761 C-17.5 65.875 -17.5 65.875 -16.5 62.875 C-17.16 62.545 -17.82 62.215 -18.5 61.875 C-17.84 61.875 -17.18 61.875 -16.5 61.875 C-16.4189653 61.28555099 -16.3379306 60.69610199 -16.25444031 60.08879089 C-15.40300583 53.90602836 -14.54138803 47.72474371 -13.67407227 41.54418945 C-13.35249299 39.2431147 -13.03343701 36.94168575 -12.71704102 34.63989258 C-12.259544 31.31493398 -11.79272706 27.99139151 -11.32421875 24.66796875 C-11.18658615 23.6529277 -11.04895355 22.63788666 -10.90715027 21.59208679 C-8.96042102 7.95447319 -8.96042102 7.95447319 -6.5 1.875 C-3.5 -0.125 -3.5 -0.125 0 0 Z " fill="#18C6E7" transform="translate(317.5,340.125)"/>
<path d="M0 0 C4.10757963 -0.07489276 8.2148876 -0.12894754 12.32299805 -0.16479492 C13.71662328 -0.17975938 15.11020244 -0.20013851 16.50366211 -0.22631836 C27.48255673 -0.42722386 36.00125222 0.25093917 45 7 C45.825 7.53625 46.65 8.0725 47.5 8.625 C54.00952477 14.80904853 57.54964869 22.90998286 58.3359375 31.796875 C58.46318578 44.67440097 56.17424664 54.37964835 47 64 C37.76298447 72.53303975 26.80609814 72.4028986 14.9375 72.1875 C13.48503995 72.17242256 12.03256473 72.15873958 10.58007812 72.14648438 C7.05306543 72.11372861 3.52663215 72.06211664 0 72 C-1.41038604 69.17922792 -1.12726171 66.82480621 -1.12939453 63.67016602 C-1.13114685 63.02120361 -1.13289917 62.37224121 -1.13470459 61.70361328 C-1.1391136 59.55368391 -1.13618812 57.4038365 -1.1328125 55.25390625 C-1.13348589 53.76179488 -1.13445622 52.26968362 -1.13571167 50.77757263 C-1.13718742 47.64784706 -1.13503832 44.51815 -1.13037109 41.38842773 C-1.1246788 37.37556718 -1.1279504 33.36277359 -1.13394356 29.3499155 C-1.13755668 26.26758825 -1.13640703 23.18527687 -1.13381577 20.10294914 C-1.13314832 18.62336151 -1.13396855 17.14377243 -1.13629532 15.66418648 C-1.1388336 13.59582832 -1.13496442 11.52757859 -1.12939453 9.45922852 C-1.12859894 8.28167496 -1.12780334 7.1041214 -1.12698364 5.8908844 C-1 3 -1 3 0 0 Z M11 11 C11 27.83 11 44.66 11 62 C27.30501328 62.61352824 27.30501328 62.61352824 39.828125 55.4609375 C44.96639847 50.19794865 47.02344601 43.25080103 47.375 36 C46.96681996 27.90170804 44.46335745 21.46421937 38.8125 15.625 C30.77186668 8.41615633 21.05873363 9.99412664 11 11 Z " fill="#6F6E6D" transform="translate(537,419)"/>
<path d="M0 0 C5.83427508 4.12535495 7.78431874 8.57619486 9.09375 15.48046875 C7.82535474 15.98662173 6.55391898 16.48515974 5.28125 16.98046875 C4.57355469 17.25890625 3.86585938 17.53734375 3.13671875 17.82421875 C1.09375 18.48046875 1.09375 18.48046875 -1.90625 18.48046875 C-2.58984375 16.75520833 -3.2734375 15.02994792 -3.95703125 13.3046875 C-5.04727205 11.20945107 -6.05548196 9.95237369 -7.90625 8.48046875 C-13.3820571 6.89927639 -18.66822828 7.2356023 -23.90625 9.48046875 C-25.85963542 11.85850317 -25.90524052 13.47057587 -26.21875 16.54296875 C-25.8585676 19.92868333 -25.45583717 20.39547302 -22.90625 22.48046875 C-20.82595112 23.56035163 -20.82595112 23.56035163 -18.46875 24.41796875 C-17.58703125 24.75957031 -16.7053125 25.10117187 -15.796875 25.453125 C-12.79559621 26.5197957 -9.76695283 27.43258322 -6.71875 28.35546875 C-0.05938248 30.54672593 3.95611197 33.51535793 8.03125 39.16796875 C10.00770946 45.32987179 10.19212153 51.77629513 7.59375 57.79296875 C4.52211871 63.0975235 -0.27916656 66.16692703 -5.65625 68.85546875 C-16.24227801 70.89124337 -24.48762859 69.18900556 -33.71875 63.85546875 C-37.06442895 60.22301731 -40.90625 54.58132692 -40.90625 49.48046875 C-37.60625 48.49046875 -34.30625 47.50046875 -30.90625 46.48046875 C-28.90625 48.48046875 -28.90625 48.48046875 -28.15625 50.85546875 C-26.42637134 54.48821393 -24.43656505 55.61539665 -20.90625 57.48046875 C-15.71281212 58.82691561 -10.77824735 58.86720004 -5.90625 56.48046875 C-3.26865805 53.04360651 -2.89546749 51.11663687 -2.96875 46.79296875 C-4.0400669 43.00764905 -4.68341809 42.49916566 -7.90625 40.48046875 C-10.07249719 39.57030876 -10.07249719 39.57030876 -12.390625 38.90234375 C-13.66510498 38.49689331 -13.66510498 38.49689331 -14.96533203 38.08325195 C-15.85333496 37.8018335 -16.74133789 37.52041504 -17.65625 37.23046875 C-25.55780081 34.60202824 -32.74549941 32.10201132 -37.03515625 24.47265625 C-39.50693109 18.81971827 -39.01865411 14.15334668 -36.91796875 8.5546875 C-34.39036459 3.37261101 -29.73752372 0.35867437 -24.90625 -2.51953125 C-16.55088258 -5.23819744 -7.53208157 -4.36518364 0 0 Z " fill="#6C6B69" transform="translate(573.90625,519.51953125)"/>
<path d="M0 0 C7.06898627 6.08261609 10.97054802 11.9703806 11.8984375 21.47265625 C11.9375 23.375 11.9375 23.375 11.6875 26.3125 C9.74881536 28.25118464 6.12771078 27.58965715 3.4765625 27.6640625 C2.75262299 27.68721527 2.02868347 27.71036804 1.2828064 27.73422241 C-0.25214464 27.78192943 -1.78717446 27.82715515 -3.32226562 27.87011719 C-5.6708776 27.93702645 -8.01895136 28.01485084 -10.3671875 28.09375 C-11.856751 28.13868311 -13.34633402 28.18297494 -14.8359375 28.2265625 C-15.53915131 28.25046051 -16.24236511 28.27435852 -16.96688843 28.29898071 C-20.06331834 28.37845421 -22.34516703 28.30161099 -25.3125 27.3125 C-24.18103896 31.95744532 -23.18392513 35.44107487 -19.75 38.875 C-15.14609054 40.80027123 -11.2293538 41.2608073 -6.3125 40.3125 C-3.19656805 38.61347071 -0.92350338 36.53450675 0.6875 33.3125 C2.16949902 33.76159061 3.64805236 34.22206564 5.125 34.6875 C5.94871094 34.94273437 6.77242187 35.19796875 7.62109375 35.4609375 C9.6875 36.3125 9.6875 36.3125 10.6875 38.3125 C6.49219982 44.4418038 2.93262766 48.89745745 -4.3125 51.3125 C-12.27396994 51.98514497 -19.58012805 52.00675153 -26.3125 47.3125 C-32.61005945 41.64223651 -36.51547049 35.06514072 -37.3125 26.48046875 C-37.3125 18.43983132 -34.95510119 10.42591359 -29.58984375 4.3671875 C-20.68121719 -4.09866438 -11.08037698 -5.64472035 0 0 Z M-23.625 13.375 C-25.47854149 16.03691725 -25.47854149 16.03691725 -25.3125 18.3125 C-16.7325 18.3125 -8.1525 18.3125 0.6875 18.3125 C-1.9625363 11.26894054 -1.9625363 11.26894054 -7.3125 7.3125 C-14.50608684 6.16152611 -19.15268816 7.45220864 -23.625 13.375 Z " fill="#6E6D6C" transform="translate(637.3125,440.6875)"/>
<path d="M0 0 C6.14225544 4.27230875 10.55340444 9.46959133 12 17 C12.80428996 26.84925578 11.57881468 33.63177798 6.125 41.8125 C0.67962514 47.41803294 -5.14373665 49.73698505 -12.89453125 50.265625 C-14.18746094 50.26046875 -15.48039063 50.2553125 -16.8125 50.25 C-18.11832031 50.25515625 -19.42414062 50.2603125 -20.76953125 50.265625 C-24 50 -24 50 -26 48 C-26.99 48.495 -26.99 48.495 -28 49 C-28.061875 48.4225 -28.12375 47.845 -28.1875 47.25 C-28.84623611 44.78598806 -28.84623611 44.78598806 -31.3125 43.25 C-35.52618073 39.72226729 -37.28696328 35.13911016 -39 30 C-39.70954932 20.02537393 -39.13943716 12.67138805 -32.875 4.75 C-24.01386721 -4.82604371 -11.21605249 -6.0234356 0 0 Z M-24 10 C-24 10.99 -24 11.98 -24 13 C-24.66 13 -25.32 13 -26 13 C-28.80342429 18.25642055 -28.88670175 24.3423553 -27.5 30.0625 C-25.9151926 34.24062859 -23.70191947 36.59375235 -20 39 C-15.31065463 40.56311512 -11.48244475 40.52321579 -6.8125 38.875 C-2.61959651 36.07973101 -0.57837461 32.73512382 1 28 C1.11687338 26.52413385 1.17501742 25.04293388 1.1875 23.5625 C1.20167969 22.80066406 1.21585938 22.03882813 1.23046875 21.25390625 C0.97403852 18.74610551 0.23131628 17.18026305 -1 15 C-1.268125 14.34 -1.53625 13.68 -1.8125 13 C-3.58122462 10.02109537 -4.9521032 8.74165531 -8 7 C-13.66729714 6.22447513 -19.57612511 5.88121993 -24 10 Z " fill="#6C6C6A" transform="translate(628,539)"/>
<path d="M0 0 C6.02900838 5.46000558 9.48948054 10.97138334 10.3125 19.078125 C10.63705122 27.80043895 8.7997485 33.43744689 4.3125 40.75 C-1.8108709 46.70787439 -9.05589385 49.39262021 -17.4921875 49.28125 C-24.54932878 48.4897949 -30.52402127 45.52915019 -35 40 C-40.46159635 32.66585633 -41.99216574 26.02748337 -41 17 C-38.81008609 8.74935138 -34.97217154 2.54936465 -27.5 -1.8125 C-18.69794625 -6.60094121 -8.15415694 -5.8703163 0 0 Z M-24 8 C-28.60816547 12.25186402 -29.84438891 15.66583371 -30.25 21.75 C-30.15184453 27.59570349 -28.72251679 32.32054613 -24.5 36.4375 C-20.25729156 39.08919278 -16.9389573 39.33484456 -12 39 C-7.31829732 37.25583626 -4.78750809 35.12964161 -2 31 C-0.09744631 25.29233892 -0.23438961 19.14370909 -2.25 13.5 C-3.98469081 11.02187027 -5.47751733 9.62740817 -8 8 C-8.66 7.34 -9.32 6.68 -10 6 C-15.63983541 4.56239489 -18.96211879 5.10788301 -24 8 Z " fill="#6C6B6A" transform="translate(814,540)"/>
<path d="M0 0 C4.86894656 4.31565718 7.74434562 8.99878545 8.75 15.4375 C8.84299386 18.07712197 8.89028615 20.68914428 8.8828125 23.328125 C8.88376923 24.07334412 8.88472595 24.81856323 8.88571167 25.58636475 C8.88638946 27.15295497 8.88456327 28.71954805 8.88037109 30.28613281 C8.87498675 32.69342256 8.88034509 35.10052829 8.88671875 37.5078125 C8.88605849 39.03125041 8.88477841 40.55468821 8.8828125 42.078125 C8.88483673 42.80098694 8.88686096 43.52384888 8.88894653 44.26861572 C8.8649722 49.3225278 8.8649722 49.3225278 7.75 50.4375 C6.06391034 50.50955511 4.37499341 50.52136068 2.6875 50.5 C1.76839844 50.49097656 0.84929688 50.48195313 -0.09765625 50.47265625 C-0.80792969 50.46105469 -1.51820313 50.44945312 -2.25 50.4375 C-2.27505615 49.42324951 -2.3001123 48.40899902 -2.32592773 47.36401367 C-2.42009645 43.60118973 -2.52029405 39.83854631 -2.62231445 36.07592773 C-2.66562749 34.44738996 -2.70730518 32.81880784 -2.74731445 31.19018555 C-2.80510503 28.84931065 -2.86877398 26.50865824 -2.93359375 24.16796875 C-2.95030624 23.43974411 -2.96701874 22.71151947 -2.98423767 21.96122742 C-3.07467238 18.87583061 -3.26723993 16.38578022 -4.25 13.4375 C-5.24 12.7775 -6.23 12.1175 -7.25 11.4375 C-7.91 10.7775 -8.57 10.1175 -9.25 9.4375 C-10.24 9.9325 -10.24 9.9325 -11.25 10.4375 C-11.25 9.7775 -11.25 9.1175 -11.25 8.4375 C-16.94225889 9.44325156 -16.94225889 9.44325156 -21.6875 12.5 C-25.55542232 19.77169395 -24.34298636 29.41277739 -24.25 37.4375 C-24.22463412 39.68745347 -24.2035526 41.93746081 -24.1875 44.1875 C-24.17589844 45.17234375 -24.16429687 46.1571875 -24.15234375 47.171875 C-24.25 49.4375 -24.25 49.4375 -25.25 50.4375 C-26.93608966 50.50955511 -28.62500659 50.52136068 -30.3125 50.5 C-31.23160156 50.49097656 -32.15070312 50.48195313 -33.09765625 50.47265625 C-33.80792969 50.46105469 -34.51820313 50.44945312 -35.25 50.4375 C-36.1503577 47.35330548 -36.37870059 44.59489173 -36.3828125 41.38671875 C-36.38474609 40.38825928 -36.38667969 39.3897998 -36.38867188 38.36108398 C-36.38416016 37.29317627 -36.37964844 36.22526855 -36.375 35.125 C-36.37306641 34.02808838 -36.37113281 32.93117676 -36.36914062 31.80102539 C-36.31174652 20.66577092 -35.8452409 9.55552345 -35.25 -1.5625 C-33.62581255 -1.64340971 -32.00048255 -1.70164995 -30.375 -1.75 C-29.47007812 -1.78480469 -28.56515625 -1.81960938 -27.6328125 -1.85546875 C-26.45332031 -1.71044922 -26.45332031 -1.71044922 -25.25 -1.5625 C-24.59 -0.5725 -23.93 0.4175 -23.25 1.4375 C-22.198125 1.004375 -22.198125 1.004375 -21.125 0.5625 C-19.701875 0.005625 -19.701875 0.005625 -18.25 -0.5625 C-17.3425 -0.954375 -16.435 -1.34625 -15.5 -1.75 C-9.88520688 -3.15369828 -5.19852785 -2.49929224 0 0 Z M-24.25 2.4375 C-24.58 3.0975 -24.91 3.7575 -25.25 4.4375 C-24.59 4.4375 -23.93 4.4375 -23.25 4.4375 C-23.58 3.7775 -23.91 3.1175 -24.25 2.4375 Z " fill="#696967" transform="translate(866.25,537.5625)"/>
<path d="M0 0 C1.41030537 2.82061074 1.07614057 5.14262 1.02734375 8.29296875 C1.01509766 9.56333984 1.00285156 10.83371094 0.99023438 12.14257812 C0.95745442 14.81982452 0.91633207 17.49670417 0.87304688 20.17382812 C0.86208984 21.45064453 0.85113281 22.72746094 0.83984375 24.04296875 C0.82300537 25.20852295 0.80616699 26.37407715 0.78881836 27.57495117 C1.02066864 31.33521421 1.71916889 34.45935686 3 38 C6.34441463 40.54812543 9.00820592 41.24577875 13.125 41 C16.20278531 40.45270739 17.00053129 39.99952321 19.4375 37.8125 C22.17339419 32.88789046 22.11544178 27.89493378 22.02734375 22.359375 C22.01509766 21.12445312 22.00285156 19.88953125 21.99023438 18.6171875 C21.95486433 16.02338452 21.91575738 13.42962999 21.87304688 10.8359375 C21.86208984 9.60617187 21.85113281 8.37640625 21.83984375 7.109375 C21.82300537 5.98499023 21.80616699 4.86060547 21.78881836 3.70214844 C22 1 22 1 24 -1 C26.97 -0.67 29.94 -0.34 33 0 C33 15.18 33 30.36 33 46 C33.66 46 34.32 46 35 46 C34.3125 48.4375 34.3125 48.4375 33 51 C30.5625 51.6875 30.5625 51.6875 28 52 C27.01 52.66 26.02 53.32 25 54 C25 53.34 25 52.68 25 52 C24.01 51.505 24.01 51.505 23 51 C21.875 48.9375 21.875 48.9375 21 47 C20.29037109 47.54140625 20.29037109 47.54140625 19.56640625 48.09375 C14.33383948 51.76572668 10.36123986 53.0544758 4 52 C-0.68089772 50.43970076 -4.63632453 48.64398176 -8 45 C-12.25647583 36.24440174 -11.3393518 26.3299234 -11.1875 16.875 C-11.17242322 15.23438731 -11.15874012 13.59376119 -11.14648438 11.953125 C-11.1137217 7.96841333 -11.0621063 3.98435791 -11 0 C-2.94959677 -1.24790633 -2.94959677 -1.24790633 0 0 Z " fill="#6B6B69" transform="translate(677,537)"/>
<path d="M0 0 C3.40617573 3.2030975 5.57935169 6.23265247 6 11 C3.03 11.99 0.06 12.98 -3 14 C-3.61875 13.030625 -4.2375 12.06125 -4.875 11.0625 C-6.65678846 7.97164638 -6.65678846 7.97164638 -9 7 C-14.88165736 6.53411718 -14.88165736 6.53411718 -20 9 C-20.25030977 11.58380177 -20.25030977 11.58380177 -20 14 C-15.70352611 15.95294268 -11.45291383 17.49169763 -6.9375 18.875 C-1.0866053 20.79356622 2.67467366 22.82910045 6.375 27.875 C8.04224247 33.54362441 7.09329722 38.14696134 4.33984375 43.203125 C1.32456514 47.24693888 -3.15042565 49.00783087 -8 50 C-14.30958146 50.62733888 -20.3767854 50.08205229 -26 47 C-28.7908907 44.62543001 -31.18116008 42.1932045 -33 39 C-33.18359375 36.2421875 -33.18359375 36.2421875 -33 34 C-30.03 33.01 -27.06 32.02 -24 31 C-23.67 32.65 -23.34 34.3 -23 36 C-22.34 36 -21.68 36 -21 36 C-20.566875 36.48726562 -20.13375 36.97453125 -19.6875 37.4765625 C-17.41880596 39.52468906 -16.01568583 39.40192577 -13 39.375 C-12.13375 39.38273438 -11.2675 39.39046875 -10.375 39.3984375 C-7.97028298 39.15620185 -7.97028298 39.15620185 -6.125 37.7890625 C-4.47853454 35.6259679 -4.47853454 35.6259679 -6 31 C-9.3 30.34 -12.6 29.68 -16 29 C-16 28.34 -16 27.68 -16 27 C-18.64 27 -21.28 27 -24 27 C-24 26.34 -24 25.68 -24 25 C-25.70940029 23.39771617 -27.53301528 21.98705258 -29.37109375 20.53515625 C-32.02615428 18.03290496 -32.01935049 15.76392397 -32.3125 12.1875 C-32.23138901 6.66181375 -29.56353382 3.56353382 -25.75 -0.25 C-17.76410364 -5.33193405 -7.90222095 -5.20828199 0 0 Z " fill="#6D6D6B" transform="translate(914,539)"/>
<path d="M0 0 C3.63 0 7.26 0 11 0 C11.28721924 0.81154541 11.57443848 1.62309082 11.87036133 2.45922852 C12.94763265 5.49959511 14.02697008 8.5392183 15.10766602 11.57836914 C15.57300043 12.88830084 16.03753499 14.19851699 16.5012207 15.5090332 C17.1718313 17.40392322 17.84565775 19.29767415 18.51953125 21.19140625 C18.92276611 22.32779541 19.32600098 23.46418457 19.74145508 24.63500977 C21.0499532 28.1335606 22.52861649 31.56677181 24 35 C27.96 23.45 31.92 11.9 36 0 C39.96 0 43.92 0 48 0 C47.23354465 3.83227675 46.3949112 6.85394279 44.99609375 10.4375 C44.58858887 11.48824707 44.18108398 12.53899414 43.76123047 13.62158203 C43.32439941 14.73645996 42.88756836 15.85133789 42.4375 17 C41.53222953 19.3306039 40.62728665 21.66133508 39.72265625 23.9921875 C39.26777832 25.16104492 38.81290039 26.32990234 38.34423828 27.53417969 C36.33190074 32.72254578 34.35165015 37.9229545 32.375 43.125 C32.03267334 44.02476562 31.69034668 44.92453125 31.33764648 45.8515625 C30.558006 47.90088004 29.77893031 49.95041243 29 52 C25.37 52 21.74 52 18 52 C15.31647788 45.00635157 12.65410511 38.00486082 10 31 C9.55108398 29.81857422 9.10216797 28.63714844 8.63964844 27.41992188 C7.252579 23.76178068 5.87523467 20.10010472 4.5 16.4375 C4.05479004 15.26662842 3.60958008 14.09575684 3.15087891 12.8894043 C2.74015137 11.79023682 2.32942383 10.69106934 1.90625 9.55859375 C1.53822266 8.58204834 1.17019531 7.60550293 0.79101562 6.59936523 C0 4 0 4 0 0 Z " fill="#6B6A69" transform="translate(652,439)"/>
<path d="M0 0 C1.99954746 -0.04254356 4.00041636 -0.04080783 6 0 C7 1 7 1 7.09765625 4.16015625 C7.08605469 5.44792969 7.07445312 6.73570312 7.0625 8.0625 C7.05347656 9.35285156 7.04445313 10.64320313 7.03515625 11.97265625 C7.02355469 12.97167969 7.01195312 13.97070312 7 15 C12.94 14.505 12.94 14.505 19 14 C20.38461538 22 20.38461538 22 19 25 C16.11788698 25.96070434 14.30149956 26.10581883 11.3125 26.0625 C10.10013672 26.04896484 10.10013672 26.04896484 8.86328125 26.03515625 C8.24839844 26.02355469 7.63351562 26.01195312 7 26 C7.06878614 29.95159258 7.15670428 33.90224623 7.26245117 37.85302734 C7.31209959 39.85882336 7.34654164 41.86497687 7.38085938 43.87109375 C7.4340332 45.75634766 7.4340332 45.75634766 7.48828125 47.6796875 C7.51446533 48.84226074 7.54064941 50.00483398 7.56762695 51.20263672 C7.71031006 52.1257666 7.85299316 53.04889648 8 54 C11.35327639 56.23551759 11.90743657 56.17283528 15.6875 55.625 C17.110625 55.41875 18.53375 55.2125 20 55 C20 58.3 20 61.6 20 65 C14.52559249 67.65425819 10.07918222 67.66956716 4.3125 65.8125 C-0.18072252 63.35394428 -2.3843496 60.84695121 -4 56 C-4.08397157 53.64319787 -4.10728187 51.28405919 -4.09765625 48.92578125 C-4.0962413 48.2419487 -4.09482635 47.55811615 -4.09336853 46.8535614 C-4.08777876 44.67316278 -4.07522822 42.49286749 -4.0625 40.3125 C-4.05748367 38.83268378 -4.052921 37.35286594 -4.04882812 35.87304688 C-4.03781271 32.24866443 -4.02055512 28.6243423 -4 25 C-5.7015625 25.0309375 -5.7015625 25.0309375 -7.4375 25.0625 C-11 25 -11 25 -12 24 C-12.07179964 22.48071962 -12.08392007 20.95832518 -12.0625 19.4375 C-12.05347656 18.61121094 -12.04445313 17.78492188 -12.03515625 16.93359375 C-12.02355469 16.29550781 -12.01195312 15.65742187 -12 15 C-9.36 15 -6.72 15 -4 15 C-4 11.04 -4 7.08 -4 3 C-2.68 2.67 -1.36 2.34 0 2 C0 1.34 0 0.68 0 0 Z " fill="#727270" transform="translate(728,522)"/>
<path d="M0 0 C1.64574566 -0.02688151 3.29161413 -0.04634123 4.9375 -0.0625 C5.85402344 -0.07410156 6.77054688 -0.08570313 7.71484375 -0.09765625 C10 0 10 0 11 1 C11.09956278 3.1726268 11.12799719 5.34853106 11.12939453 7.5234375 C11.13114685 8.20472717 11.13289917 8.88601685 11.13470459 9.58795166 C11.13912242 11.85032667 11.13618538 14.11262413 11.1328125 16.375 C11.13348556 17.9405926 11.1344556 19.5061851 11.13571167 21.07177734 C11.13718855 24.35710645 11.13503441 27.64240842 11.13037109 30.92773438 C11.1246738 35.14820516 11.12795286 39.36861236 11.13394356 43.58908081 C11.13754944 46.82316572 11.13641046 50.05723545 11.13381577 53.2913208 C11.13314657 54.84792081 11.13397466 56.40452218 11.13629532 57.96112061 C11.1388223 60.13297196 11.13498065 62.30471896 11.12939453 64.4765625 C11.12820114 66.334021 11.12820114 66.334021 11.12698364 68.22900391 C11 71 11 71 10 72 C8.31391034 72.07205511 6.62499341 72.08386068 4.9375 72.0625 C3.55884766 72.04896484 3.55884766 72.04896484 2.15234375 72.03515625 C1.44207031 72.02355469 0.73179687 72.01195312 0 72 C-1.0595964 68.535457 -1.12681919 65.3468873 -1.12939453 61.734375 C-1.13254669 60.46625977 -1.13569885 59.19814453 -1.13894653 57.89160156 C-1.13715658 56.51106735 -1.13510559 55.13053346 -1.1328125 53.75 C-1.1334864 52.33040348 -1.13445715 50.91080707 -1.13571167 49.49121094 C-1.13718456 46.51886901 -1.1350472 43.54655717 -1.13037109 40.57421875 C-1.12467405 36.76777755 -1.12795523 32.96140687 -1.13394356 29.15496826 C-1.13756019 26.22444123 -1.13640551 23.29393086 -1.13381577 20.36340332 C-1.13314955 18.96000154 -1.13396425 17.55659824 -1.13629532 16.15319824 C-1.13883986 14.19067413 -1.13427278 12.2281447 -1.12939453 10.265625 C-1.12859894 9.14961914 -1.12780334 8.03361328 -1.12698364 6.88378906 C-1.01793554 4.40731468 -0.72135725 2.35860863 0 0 Z " fill="#5E5F5D" transform="translate(647,516)"/>
<path d="M0 0 C1.13606798 5.43268494 1.12824385 10.69066603 1.09765625 16.2109375 C1.0962413 17.17907379 1.09482635 18.14721008 1.09336853 19.14468384 C1.08779365 22.22148799 1.07524577 25.29821803 1.0625 28.375 C1.05748175 30.46744686 1.05291941 32.55989487 1.04882812 34.65234375 C1.03783245 39.7682575 1.02058515 44.88411621 1 50 C-5.5 52.125 -5.5 52.125 -10 51 C-10 34.17 -10 17.34 -10 0 C-3.25 -1.125 -3.25 -1.125 0 0 Z " fill="#6D6D6B" transform="translate(765,537)"/>
<path d="M0 0 C2.64 0 5.28 0 8 0 C8 16.17 8 32.34 8 49 C5.36 49 2.72 49 0 49 C-0.33 46.36 -0.66 43.72 -1 41 C-3.63106761 39.94729537 -3.63106761 39.94729537 -5 40 C-5.66 39.67 -6.32 39.34 -7 39 C-5.73046875 37.53515625 -4.4609375 36.0703125 -3.19140625 34.60546875 C-0.57131536 31.0747889 -0.80866545 27.3791016 -0.68359375 23.14453125 C-0.66281265 22.48289474 -0.64203156 21.82125824 -0.62062073 21.13957214 C-0.55535273 19.03065148 -0.49634656 16.92160865 -0.4375 14.8125 C-0.39429311 13.38084685 -0.35067812 11.94920596 -0.30664062 10.51757812 C-0.19969494 7.01184846 -0.09836359 3.50598214 0 0 Z " fill="#60605F" transform="translate(701,538)"/>
<path d="M0 0 C9.57 0 19.14 0 29 0 C29.33 0.66 29.66 1.32 30 2 C16.14 1.505 16.14 1.505 2 1 C2 23.11 2 45.22 2 68 C5.3 68 8.6 68 12 68 C14.54339793 68.13774689 17.08567305 68.3008371 19.625 68.5 C20.83414063 68.5928125 22.04328125 68.685625 23.2890625 68.78125 C24.18367187 68.8534375 25.07828125 68.925625 26 69 C26 69.33 26 69.66 26 70 C17.42 70 8.84 70 0 70 C0 46.9 0 23.8 0 0 Z " fill="#565553" transform="translate(538,420)"/>
<path d="M0 0 C15.93607044 -1.03307059 15.93607044 -1.03307059 20.375 2.75 C22.43657902 4.93284838 23.93647872 7.18542852 25 10 C24.67 11.32 24.34 12.64 24 14 C21.36 14.66 18.72 15.32 16 16 C15.16121545 14.71186658 14.32913217 13.41936744 13.5 12.125 C13.0359375 11.40570312 12.571875 10.68640625 12.09375 9.9453125 C11 8 11 8 11 6 C7.7 6.33 4.4 6.66 1 7 C1.99 6.67 2.98 6.34 4 6 C4 5.01 4 4.02 4 3 C3.01 2.67 2.02 2.34 1 2 C0.67 1.34 0.34 0.68 0 0 Z " fill="#656563" transform="translate(895,537)"/>
<path d="M0 0 C1.64574566 -0.02688151 3.29161413 -0.04634123 4.9375 -0.0625 C5.85402344 -0.07410156 6.77054688 -0.08570313 7.71484375 -0.09765625 C10 0 10 0 11 1 C11.09956278 3.1726268 11.12799719 5.34853106 11.12939453 7.5234375 C11.13114685 8.20472717 11.13289917 8.88601685 11.13470459 9.58795166 C11.13912242 11.85032667 11.13618538 14.11262413 11.1328125 16.375 C11.13348556 17.9405926 11.1344556 19.5061851 11.13571167 21.07177734 C11.13718855 24.35710645 11.13503441 27.64240842 11.13037109 30.92773438 C11.1246738 35.14820516 11.12795286 39.36861236 11.13394356 43.58908081 C11.13754944 46.82316572 11.13641046 50.05723545 11.13381577 53.2913208 C11.13314657 54.84792081 11.13397466 56.40452218 11.13629532 57.96112061 C11.1388223 60.13297196 11.13498065 62.30471896 11.12939453 64.4765625 C11.12820114 66.334021 11.12820114 66.334021 11.12698364 68.22900391 C11 71 11 71 10 72 C8.31391034 72.07205511 6.62499341 72.08386068 4.9375 72.0625 C3.55884766 72.04896484 3.55884766 72.04896484 2.15234375 72.03515625 C1.44207031 72.02355469 0.73179687 72.01195312 0 72 C-1.0595964 68.535457 -1.12681919 65.3468873 -1.12939453 61.734375 C-1.13254669 60.46625977 -1.13569885 59.19814453 -1.13894653 57.89160156 C-1.13715658 56.51106735 -1.13510559 55.13053346 -1.1328125 53.75 C-1.1334864 52.33040348 -1.13445715 50.91080707 -1.13571167 49.49121094 C-1.13718456 46.51886901 -1.1350472 43.54655717 -1.13037109 40.57421875 C-1.12467405 36.76777755 -1.12795523 32.96140687 -1.13394356 29.15496826 C-1.13756019 26.22444123 -1.13640551 23.29393086 -1.13381577 20.36340332 C-1.13314955 18.96000154 -1.13396425 17.55659824 -1.13629532 16.15319824 C-1.13883986 14.19067413 -1.13427278 12.2281447 -1.12939453 10.265625 C-1.12859894 9.14961914 -1.12780334 8.03361328 -1.12698364 6.88378906 C-1.01793554 4.40731468 -0.72135725 2.35860863 0 0 Z M1 2 C1 24.77 1 47.54 1 71 C3.64 71 6.28 71 9 71 C9 48.23 9 25.46 9 2 C6.36 2 3.72 2 1 2 Z " fill="#868684" transform="translate(647,516)"/>
<path d="M0 0 C0.99 0 1.98 0 3 0 C4.05435078 4.30325889 4.14528435 8.4867584 4.1328125 12.890625 C4.13376923 13.63584412 4.13472595 14.38106323 4.13571167 15.14886475 C4.13638946 16.71545497 4.13456327 18.28204805 4.13037109 19.84863281 C4.12498675 22.25592256 4.13034509 24.66302829 4.13671875 27.0703125 C4.13605849 28.59375041 4.13477841 30.11718821 4.1328125 31.640625 C4.13483673 32.36348694 4.13686096 33.08634888 4.13894653 33.83111572 C4.1149722 38.8850278 4.1149722 38.8850278 3 40 C-0.3 40 -3.6 40 -7 40 C-7 29.11 -7 18.22 -7 7 C-6.67 7 -6.34 7 -6 7 C-6 16.9 -6 26.8 -6 37 C-3.69 37 -1.38 37 1 37 C0.67 24.79 0.34 12.58 0 0 Z " fill="#848381" transform="translate(871,548)"/>
<path d="M0 0 C3 2 3 2 3.875 4.8125 C4.02696888 8.68770638 3.61721762 10.13741823 1 13 C-2.4375 14.0625 -2.4375 14.0625 -6 14 C-8.79680191 12.08639869 -9.7607099 10.68368599 -10.875 7.5 C-11.02057971 4.58840581 -10.70451315 3.3538515 -9 1 C-5.80157788 -1.31609878 -3.70338927 -1.13950439 0 0 Z " fill="#6D6D6C" transform="translate(708,478)"/>
<path d="M0 0 C0.83223083 0.00202423 1.66446167 0.00404846 2.52191162 0.00613403 C3.80047028 0.00469894 3.80047028 0.00469894 5.1048584 0.00323486 C6.91396152 0.00255274 8.72306707 0.00440923 10.53216553 0.00857544 C13.29312711 0.01389708 16.05392406 0.00864517 18.81488037 0.00222778 C20.57139115 0.00288907 22.32790182 0.00417129 24.08441162 0.00613403 C25.32061249 0.00309769 25.32061249 0.00309769 26.58178711 0 C30.54429279 0.01607101 34.20036541 0.15771224 38.06878662 1.13894653 C38.06878662 1.46894653 38.06878662 1.79894653 38.06878662 2.13894653 C23.87878662 2.13894653 9.68878662 2.13894653 -4.93121338 2.13894653 C-4.93121338 16.65894653 -4.93121338 31.17894653 -4.93121338 46.13894653 C0.62269892 46.98318481 0.62269892 46.98318481 6.07635498 47.25247192 C6.77655258 47.25239639 7.47675018 47.25232086 8.19816589 47.25224304 C8.92761917 47.24708176 9.65707245 47.24192047 10.40863037 47.23660278 C11.55906578 47.23448036 11.55906578 47.23448036 12.73274231 47.23231506 C15.15729852 47.22676419 17.58175881 47.21422116 20.00628662 47.20144653 C21.66058215 47.19642517 23.31487915 47.19186338 24.96917725 47.18777466 C29.00241674 47.17681091 33.03558548 47.15958078 37.06878662 47.13894653 C33.06978567 49.8673506 28.82637747 49.4096564 24.18206787 49.36941528 C22.89564644 49.36872795 22.89564644 49.36872795 21.58323669 49.36802673 C19.7752646 49.36501117 17.96729495 49.35714569 16.15936279 49.34475708 C13.38103115 49.32644485 10.60303182 49.32424786 7.824646 49.32449341 C6.06878372 49.31958013 4.31292371 49.31375264 2.55706787 49.30691528 C1.72169998 49.30580246 0.88633209 49.30468964 0.02565002 49.30354309 C-5.81514809 49.25501182 -5.81514809 49.25501182 -6.93121338 48.13894653 C-7.02944082 46.67089361 -7.05919708 45.19817193 -7.06060791 43.72683716 C-7.06533615 42.32032898 -7.06533615 42.32032898 -7.07015991 40.88540649 C-7.06813568 39.86563721 -7.06611145 38.84586792 -7.06402588 37.79519653 C-7.0649826 36.75576904 -7.06593933 35.71634155 -7.06692505 34.64541626 C-7.06760701 32.442901 -7.06575165 30.24038374 -7.06158447 28.03787231 C-7.05623645 24.65354934 -7.06152896 21.26935909 -7.06793213 17.88504028 C-7.06727135 15.7509254 -7.06599019 13.61681061 -7.06402588 11.48269653 C-7.06605011 10.46292725 -7.06807434 9.44315796 -7.07015991 8.39248657 C-7.06700775 7.45481445 -7.06385559 6.51714233 -7.06060791 5.55105591 C-7.05981232 4.72134277 -7.05901672 3.89162964 -7.05819702 3.03677368 C-6.77555068 -1.18750185 -3.4802115 0.0143477 0 0 Z " fill="#848583" transform="translate(400.93121337890625,517.8610534667969)"/>
<path d="M0 0 C1.875 1.1875 1.875 1.1875 3 3 C3.42454541 6.32560568 3.31414524 8.33680449 1.875 11.375 C0 13 0 13 -2.9375 13.5 C-6 13 -6 13 -8.375 11.4375 C-10.61372366 8.07941451 -10.57491549 5.95254396 -10 2 C-7.00946104 -1.68066334 -4.3259629 -1.28858469 0 0 Z " fill="#696967" transform="translate(764,518)"/>
<path d="M0 0 C3.3 0.33 6.6 0.66 10 1 C10 16.18 10 31.36 10 47 C10.66 47 11.32 47 12 47 C11.3125 49.4375 11.3125 49.4375 10 52 C7.5625 52.6875 7.5625 52.6875 5 53 C4.01 53.66 3.02 54.32 2 55 C2 54.34 2 53.68 2 53 C1.34 52.67 0.68 52.34 0 52 C-0.72693904 50.02111039 -1.39816251 48.02045442 -2 46 C-1.01 45.01 -0.02 44.02 1 43 C1 45.64 1 48.28 1 51 C3.64 51 6.28 51 9 51 C9 34.83 9 18.66 9 2 C6.36 2 3.72 2 1 2 C1.01047363 2.89307861 1.02094727 3.78615723 1.03173828 4.70629883 C1.06583592 8.02175477 1.09090637 11.33702421 1.10986328 14.65258789 C1.119917 16.08718812 1.13356194 17.52176789 1.15087891 18.95629883 C1.17515549 21.01909438 1.18648919 23.08161885 1.1953125 25.14453125 C1.20578613 26.38565674 1.21625977 27.62678223 1.22705078 28.90551758 C1 32 1 32 -1 35 C-1.02468646 30.33691801 -1.04285349 25.67387392 -1.05493164 21.01074219 C-1.05996588 19.42382139 -1.06679369 17.83690523 -1.07543945 16.25 C-1.08754482 13.97134251 -1.09323733 11.69274624 -1.09765625 9.4140625 C-1.10281754 8.70255035 -1.10797882 7.99103821 -1.11329651 7.25796509 C-1.11387171 2.22774341 -1.11387171 2.22774341 0 0 Z " fill="#8A8987" transform="translate(700,536)"/>
<path d="M0 0 C0.33 0 0.66 0 1 0 C0.67 6.93 0.34 13.86 0 21 C-0.66 21 -1.32 21 -2 21 C-2.04898437 21.76441406 -2.09796875 22.52882813 -2.1484375 23.31640625 C-2.7505125 31.94268778 -3.78097405 40.44314791 -5 49 C-5.33 49 -5.66 49 -6 49 C-6.13534286 39.94706663 -5.75741925 31.02140429 -5 22 C-4.67 22 -4.34 22 -4 22 C-3.96261719 21.16597656 -3.92523438 20.33195312 -3.88671875 19.47265625 C-3.47618784 12.4453331 -2.55765031 6.56092905 0 0 Z " fill="#31CAE8" transform="translate(304,483)"/>
<path d="M0 0 C0.99 0.66 1.98 1.32 3 2 C3.2578125 4.42578125 3.2578125 4.42578125 3.125 7.3125 C2.9699666 11.10048278 3.21527381 14.29800928 4 18 C4.11678799 20.67678073 4.0454506 23.31841457 4 26 C1.39080172 27.30459914 -0.58942615 27.1326594 -3.5 27.125 C-4.4796875 27.12757813 -5.459375 27.13015625 -6.46875 27.1328125 C-9 27 -9 27 -11 26 C-10.67 25.34 -10.34 24.68 -10 24 C-6.37 24.33 -2.74 24.66 1 25 C1.0309375 22.5559375 1.0309375 22.5559375 1.0625 20.0625 C1.07410156 19.14597656 1.08570313 18.22945312 1.09765625 17.28515625 C1.25949049 15.03406673 1.25949049 15.03406673 0 14 C-0.07271741 11.64686445 -0.08370868 9.29166332 -0.0625 6.9375 C-0.05347656 5.64714844 -0.04445313 4.35679687 -0.03515625 3.02734375 C-0.02355469 2.02832031 -0.01195312 1.02929688 0 0 Z " fill="#3DBED6" transform="translate(359,566)"/>
<path d="M0 0 C0.33 0 0.66 0 1 0 C1.19815668 20.41013825 1.19815668 20.41013825 0 27 C-0.66 27.33 -1.32 27.66 -2 28 C-3.13350534 30.01669827 -3.13350534 30.01669827 -4 32 C-3.43739111 21.19402929 -1.78964322 10.65907 0 0 Z " fill="#22C6E5" transform="translate(282,528)"/>
<path d="M0 0 C3.0572921 0.1951463 5.26911153 0.53710397 7.875 2.1875 C9.56589731 4.91172344 9.38457172 6.85933099 9 10 C7.875 12.375 7.875 12.375 6 14 C2.8125 14.25 2.8125 14.25 0 14 C-0.33 13.01 -0.66 12.02 -1 11 C1.31 10.34 3.62 9.68 6 9 C5.11785113 6.11785113 5.11785113 6.11785113 4 4 C4.33 3.34 4.66 2.68 5 2 C2.69 2 0.38 2 -2 2 C-1.34 1.34 -0.68 0.68 0 0 Z " fill="#72716F" transform="translate(758,517)"/>
<path d="M0 0 C3.45825936 -0.05898369 6.9163862 -0.09392131 10.375 -0.125 C11.34050781 -0.14175781 12.30601562 -0.15851563 13.30078125 -0.17578125 C19.77738043 -0.21924836 25.706577 0.46767329 32 2 C32 2.66 32 3.32 32 4 C31.04222656 3.855625 30.08445312 3.71125 29.09765625 3.5625 C19.00569704 2.1270058 9.18432487 1.77312148 -1 2 C-0.67 1.34 -0.34 0.68 0 0 Z " fill="#807F7E" transform="translate(408,444)"/>
<path d="M0 0 C1.65 0 3.3 0 5 0 C4.01 0.33 3.02 0.66 2 1 C1.67 2.65 1.34 4.3 1 6 C3.64 6.33 6.28 6.66 9 7 C8.67 17.23 8.34 27.46 8 38 C7.67 38 7.34 38 7 38 C7 28.1 7 18.2 7 8 C4.36 8 1.72 8 -1 8 C-0.67 5.36 -0.34 2.72 0 0 Z " fill="#504F4D" transform="translate(718,538)"/>
<path d="M0 0 C0.66 0 1.32 0 2 0 C6.32509243 11.09480233 7.56200811 21.42347365 4 33 C3.1509003 30.06408734 2.89204277 27.49662939 2.9375 24.4453125 C2.94523437 23.58292969 2.95296875 22.72054688 2.9609375 21.83203125 C2.98686646 20.03515462 3.01290714 18.2382796 3.0390625 16.44140625 C3.08027708 11.83224262 2.95825958 7.53676021 2 3 C1.01 3 0.02 3 -1 3 C-0.67 2.01 -0.34 1.02 0 0 Z " fill="#8E8F8D" transform="translate(477,446)"/>
<path d="M0 0 C0.33 0 0.66 0 1 0 C1.6761872 3.85255857 2.33923092 7.70726957 3 11.5625 C3.19078125 12.64853516 3.3815625 13.73457031 3.578125 14.85351562 C4.50674068 20.30913274 5.25413964 25.46452096 5 31 C4.01 31 3.02 31 2 31 C1.22054119 23.96287369 0.74047268 16.94767371 0.4375 9.875 C0.39431641 8.91851562 0.35113281 7.96203125 0.30664062 6.9765625 C0.20199654 4.65113844 0.09981681 2.32563539 0 0 Z " fill="#36CCE7" transform="translate(331,393)"/>
<path d="M0 0 C0.33 1.32 0.66 2.64 1 4 C1.66 4 2.32 4 3 4 C4.82960294 11.20406158 5.78369884 17.64224229 4 25 C3.67 25 3.34 25 3 25 C2.66089006 22.95928485 2.32897296 20.91737379 2 18.875 C1.814375 17.73804688 1.62875 16.60109375 1.4375 15.4296875 C1.03043951 12.23862398 0.92190098 9.21182209 1 6 C0.34 5.67 -0.32 5.34 -1 5 C-0.67 3.35 -0.34 1.7 0 0 Z " fill="#28CAE7" transform="translate(342,556)"/>
<path d="M0 0 C3.96 0 7.92 0 12 0 C11 5 11 5 9 7 C9.33 5.35 9.66 3.7 10 2 C7.36 2 4.72 2 2 2 C1.87625 3.0725 1.7525 4.145 1.625 5.25 C0.75609756 10.46341463 0.75609756 10.46341463 -1 13 C-1.99 13.33 -2.98 13.66 -4 14 C-3.52188823 12.22888156 -3.0424722 10.45811517 -2.5625 8.6875 C-2.29566406 7.70136719 -2.02882813 6.71523438 -1.75390625 5.69921875 C-1.21920575 3.78482474 -0.62855462 1.88566385 0 0 Z " fill="#898987" transform="translate(688,439)"/>
<path d="M0 0 C0.33 0 0.66 0 1 0 C1.87890625 6.15234375 1.87890625 6.15234375 2 8 C1.67 8.33 1.34 8.66 1 9 C0.76281257 12.6105197 0.60344319 16.21419749 0.48242188 19.83007812 C0.21328125 25.78671875 0.21328125 25.78671875 -2 28 C-3.30832531 21.75296324 -2.56810793 16.32294425 -1.5625 10.0625 C-1.41490234 9.09248047 -1.26730469 8.12246094 -1.11523438 7.12304688 C-0.75241534 4.74716737 -0.38047493 2.37310477 0 0 Z " fill="#19C6E9" transform="translate(300,406)"/>
<path d="M0 0 C0.33 0 0.66 0 1 0 C1.33 4.29 1.66 8.58 2 13 C2.99 13.33 3.98 13.66 5 14 C4.34 14 3.68 14 3 14 C3.144375 14.73605469 3.28875 15.47210937 3.4375 16.23046875 C3.623125 17.20628906 3.80875 18.18210937 4 19.1875 C4.185625 20.15042969 4.37125 21.11335937 4.5625 22.10546875 C4.96877612 24.7934206 5.07933572 27.28771019 5 30 C4.67 29.34 4.34 28.68 4 28 C3.34 28 2.68 28 2 28 C1.65988375 24.83402429 1.32916813 21.6671312 1 18.5 C0.90460938 17.613125 0.80921875 16.72625 0.7109375 15.8125 C0.16485054 10.50765526 -0.0996753 5.33262848 0 0 Z " fill="#47C4DB" transform="translate(353,530)"/>
<path d="M0 0 C0.99 0.33 1.98 0.66 3 1 C3.33 2.65 3.66 4.3 4 6 C-0.455 7.485 -0.455 7.485 -5 9 C-6 8 -6 8 -6.0625 5.4375 C-6.041875 4.633125 -6.02125 3.82875 -6 3 C-5.01 3.495 -5.01 3.495 -4 4 C-4 4.66 -4 5.32 -4 6 C-2.04783565 4.04783565 -1.15173355 2.46800047 0 0 Z " fill="#777674" transform="translate(916,544)"/>
<path d="M0 0 C0.33 0 0.66 0 1 0 C1 2.31 1 4.62 1 7 C0.67 7 0.34 7 0 7 C0 4.69 0 2.38 0 0 Z M-1 7 C-0.67 7 -0.34 7 0 7 C0.19355213 14.65606218 0.3479743 21.66258031 -2 29 C-2.33 29 -2.66 29 -3 29 C-3.23576736 21.37685526 -2.83717315 14.41430591 -1 7 Z " fill="#05C7EA" transform="translate(298,512)"/>
<path d="M0 0 C0.28875 0.61875 0.5775 1.2375 0.875 1.875 C1.93720042 4.13325765 1.93720042 4.13325765 4 6 C5.4671706 12.03453648 4.86763377 17.92656359 4 24 C3.67 24 3.34 24 3 24 C2.49357075 20.93852743 1.99600678 17.87567701 1.5 14.8125 C1.35691406 13.94818359 1.21382813 13.08386719 1.06640625 12.19335938 C0.40685738 8.09473423 -0.20709266 4.16773976 0 0 Z " fill="#32CDE9" transform="translate(319,415)"/>
<path d="M0 0 C0.33 0.66 0.66 1.32 1 2 C0.01 2.33 -0.98 2.66 -2 3 C-2.33 3.66 -2.66 4.32 -3 5 C-3.66 5 -4.32 5 -5 5 C-5 6.32 -5 7.64 -5 9 C-4.34 9 -3.68 9 -3 9 C-3.33 10.32 -3.66 11.64 -4 13 C-7.93846154 8.69230769 -7.93846154 8.69230769 -8.25 5.1875 C-8.1675 4.465625 -8.085 3.74375 -8 3 C-5.36 2.01 -2.72 1.02 0 0 Z " fill="#807F7E" transform="translate(889,570)"/>
<path d="M0 0 C0.33 0 0.66 0 1 0 C1.50612064 2.8740422 2.00506541 5.74902873 2.5 8.625 C2.64308594 9.43324219 2.78617187 10.24148438 2.93359375 11.07421875 C3.67876251 15.43877864 4.17272306 19.55238129 4 24 C3.67 22.68 3.34 21.36 3 20 C2.34 20 1.68 20 1 20 C-0.05619003 15.71702469 -0.11702092 11.57014354 -0.0625 7.1875 C-0.05798828 6.49462891 -0.05347656 5.80175781 -0.04882812 5.08789062 C-0.03713156 3.39188932 -0.01919924 1.69593297 0 0 Z " fill="#3DCBE5" transform="translate(341,456)"/>
<path d="M0 0 C0.33 0 0.66 0 1 0 C1.44707065 8.03485305 1.59737851 15.08715348 -3 22 C-3.66 22.33 -4.32 22.66 -5 23 C-4.47731534 20.23723823 -3.89130413 17.6739124 -3 15 C-2.34 15 -1.68 15 -1 15 C-0.67 10.05 -0.34 5.1 0 0 Z " fill="#92918F" transform="translate(639,556)"/>
<path d="M0 0 C-1.98 0.66 -3.96 1.32 -6 2 C-6.04898438 2.69867187 -6.09796875 3.39734375 -6.1484375 4.1171875 C-6.22320313 5.02726563 -6.29796875 5.93734375 -6.375 6.875 C-6.47941406 8.23238281 -6.47941406 8.23238281 -6.5859375 9.6171875 C-7 12 -7 12 -9 14 C-9 9.71 -9 5.42 -9 1 C-3.375 -1.25 -3.375 -1.25 0 0 Z " fill="#545452" transform="translate(734,525)"/>
<path d="M0 0 C1.10546875 1.61328125 1.10546875 1.61328125 2 4 C1.42578125 6.98046875 1.42578125 6.98046875 0.3125 10.1875 C-0.04199219 11.25355469 -0.39648438 12.31960938 -0.76171875 13.41796875 C-1.17035156 14.27003906 -1.57898438 15.12210937 -2 16 C-2.99 16.33 -3.98 16.66 -5 17 C-1.92482916 5.47835991 -1.92482916 5.47835991 0 0 Z " fill="#787775" transform="translate(683,453)"/>
<path d="M0 0 C1 3 1 3 0.875 6.6875 C0.78641173 12.01263942 2.63067554 16.26135107 5 21 C3.125 20.6875 3.125 20.6875 1 20 C-1.43044139 16.35433792 -1.26310692 13.64363257 -1.1875 9.4375 C-1.1865332 8.40979492 -1.1865332 8.40979492 -1.18554688 7.36132812 C-1.14067963 2.28135927 -1.14067963 2.28135927 0 0 Z " fill="#878785" transform="translate(784,555)"/>
<path d="M0 0 C0.75 1.6875 0.75 1.6875 1 4 C-0.60462718 7.06337915 -1.95150743 8.64870094 -5.2734375 9.76171875 C-7.51086975 10.25931804 -9.73147895 10.6752331 -12 11 C-11.484375 10.62875 -10.96875 10.2575 -10.4375 9.875 C-8.35213845 8.27087573 -6.3249777 6.63112835 -4.3125 4.9375 C-3.40951172 4.17759766 -3.40951172 4.17759766 -2.48828125 3.40234375 C-0.88117886 2.04925751 -0.88117886 2.04925751 0 0 Z " fill="#81807F" transform="translate(580,469)"/>
<path d="M0 0 C1.485 0.99 1.485 0.99 3 2 C3.22107787 4.7885289 3.28107535 7.34653181 3.1875 10.125 C3.17396484 10.87910156 3.16042969 11.63320313 3.14648438 12.41015625 C3.11109985 14.27374127 3.05729167 16.13695978 3 18 C0.54394629 15.44725126 0.01197061 14.14109357 -0.29296875 10.546875 C-0.25816406 9.29390625 -0.22335937 8.0409375 -0.1875 6.75 C-0.16042969 5.48671875 -0.13335937 4.2234375 -0.10546875 2.921875 C-0.07066406 1.95765625 -0.03585937 0.9934375 0 0 Z " fill="#53C3D8" transform="translate(359,566)"/>
<path d="M0 0 C0.33 0.99 0.66 1.98 1 3 C-1.45561045 5.80641195 -3.27382327 6.93578671 -7.00390625 7.265625 C-10.01123516 7.25142274 -12.99779002 7.17237569 -16 7 C-16 6.67 -16 6.34 -16 6 C-15.02160156 5.85304688 -15.02160156 5.85304688 -14.0234375 5.703125 C-8.36568892 4.73513262 -4.51577961 3.56508917 0 0 Z " fill="#807F7D" transform="translate(811,573)"/>
<path d="M0 0 C0.66 1.32 1.32 2.64 2 4 C2.36867188 4.64453125 2.73734375 5.2890625 3.1171875 5.953125 C4.16049547 8.37212225 4.20210398 10.12846484 4.125 12.75 C4.10695313 13.54921875 4.08890625 14.3484375 4.0703125 15.171875 C4.03550781 16.07679688 4.03550781 16.07679688 4 17 C3.67 15.68 3.34 14.36 3 13 C2.34 13 1.68 13 1 13 C0.67 8.71 0.34 4.42 0 0 Z " fill="#26C7E6" transform="translate(330,483)"/>
<path d="M0 0 C-2.32595946 1.16297973 -3.78723231 1.16600691 -6.375 1.1875 C-7.53128906 1.20876953 -7.53128906 1.20876953 -8.7109375 1.23046875 C-11.21834888 0.97801607 -12.83261902 0.25193467 -15 -1 C-9.60900529 -2.30690781 -4.75492505 -3.16995003 0 0 Z " fill="#80807E" transform="translate(692,588)"/>
<path d="M0 0 C0.33 0 0.66 0 1 0 C1.66 5.61 2.32 11.22 3 17 C-1 13 -1 13 -1.171875 9.765625 C-1.03265625 8.60546875 -0.8934375 7.4453125 -0.75 6.25 C-0.55664062 4.49429688 -0.55664062 4.49429688 -0.359375 2.703125 C-0.24078125 1.81109375 -0.1221875 0.9190625 0 0 Z " fill="#36C4E0" transform="translate(275,575)"/>
<path d="M0 0 C2 3 2 3 3.375 5.5 C5.01605808 8.02470474 6.50310264 9.36410173 9 11 C5.6875 10.8125 5.6875 10.8125 2 10 C0 7.75 0 7.75 -1 5 C-0.6875 2.1875 -0.6875 2.1875 0 0 Z " fill="#80807F" transform="translate(698,481)"/>
<path d="M0 0 C3.01099582 0.61588551 5.28627131 1.18577503 7.359375 3.55078125 C8.5 5.375 8.5 5.375 10 9 C9.09375 11.2265625 9.09375 11.2265625 8 13 C7.75765625 12.48050781 7.5153125 11.96101563 7.265625 11.42578125 C5.22863922 7.18728392 3.12171172 3.56767054 0 0 Z " fill="#807F7E" transform="translate(574,433)"/>
<path d="M0 0 C0.33 0 0.66 0 1 0 C1.33910994 2.04071515 1.67102704 4.08262621 2 6.125 C2.185625 7.26195312 2.37125 8.39890625 2.5625 9.5703125 C2.96956049 12.76137602 3.07809902 15.78817791 3 19 C0.12633657 15.75151091 -0.67439175 13.31430929 -1 9 C-0.78749585 5.98046432 -0.43266834 2.99539622 0 0 Z " fill="#36CBE7" transform="translate(326,362)"/>
<path d="M0 0 C0.33 0 0.66 0 1 0 C1.33 4.62 1.66 9.24 2 14 C1.01 14.495 1.01 14.495 0 15 C-1.13350534 17.01669827 -1.13350534 17.01669827 -2 19 C-1.85761163 16.95809019 -1.71092972 14.91647955 -1.5625 12.875 C-1.48128906 11.73804688 -1.40007812 10.60109375 -1.31640625 9.4296875 C-1.02269035 6.2459522 -0.56875687 3.14489093 0 0 Z " fill="#38C7E3" transform="translate(280,541)"/>
<path d="M0 0 C1.08667969 0.2165625 1.08667969 0.2165625 2.1953125 0.4375 C7.18491623 1.39550392 11.89267738 2.27607149 17 2 C12.87288224 4.47627066 8.46604181 5.19994934 3.6875 4.8125 C1.39399162 3.70821819 1.03667466 2.25895484 0 0 Z " fill="#8B8A88" transform="translate(549,576)"/>
<path d="M0 0 C0.70125 0.639375 1.4025 1.27875 2.125 1.9375 C6.52466396 5.09378067 10.71220324 5.15552343 16 5 C12.54866814 7.30088791 11.51382126 7.20948511 7.5 6.875 C6.5409375 6.81054688 5.581875 6.74609375 4.59375 6.6796875 C1.43218185 5.85120428 0.63828456 4.75630308 -1 2 C-0.67 1.34 -0.34 0.68 0 0 Z " fill="#838280" transform="translate(678,573)"/>
<path d="M0 0 C0.33 0 0.66 0 1 0 C1 2.97 1 5.94 1 9 C1.66 9.33 2.32 9.66 3 10 C2.67 10.99 2.34 11.98 2 13 C2.66 13 3.32 13 4 13 C4.33 14.65 4.66 16.3 5 18 C1.01537879 14.94512374 0.13681943 11.93021805 -0.76171875 7.1953125 C-1.04289367 4.60481569 -0.79990285 2.47969884 0 0 Z " fill="#888685" transform="translate(536,530)"/>
<path d="M0 0 C1.65 0 3.3 0 5 0 C4.01 0.33 3.02 0.66 2 1 C1.67 2.65 1.34 4.3 1 6 C3.64 6.33 6.28 6.66 9 7 C8.34 7.66 7.68 8.32 7 9 C4.27130593 8.96712417 1.7033382 8.43602229 -1 8 C-0.67 5.36 -0.34 2.72 0 0 Z " fill="#595957" transform="translate(718,538)"/>
<path d="M0 0 C3.0572921 0.1951463 5.26911153 0.53710397 7.875 2.1875 C9.49664405 4.80014875 9.20031953 6.99520702 9 10 C8.67 10 8.34 10 8 10 C8 8.35 8 6.7 8 5 C7.01 5.33 6.02 5.66 5 6 C4.67 5.34 4.34 4.68 4 4 C4.33 3.34 4.66 2.68 5 2 C2.69 2 0.38 2 -2 2 C-1.34 1.34 -0.68 0.68 0 0 Z " fill="#888886" transform="translate(758,517)"/>
<path d="M0 0 C2.4294516 3.6441774 2.16179575 5.71241272 2 10 C1.01 10.495 1.01 10.495 0 11 C0 8.69 0 6.38 0 4 C-2.31 3.34 -4.62 2.68 -7 2 C-7 1.34 -7 0.68 -7 0 C-4.27584084 -1.36207958 -2.87220643 -0.86166193 0 0 Z " fill="#656462" transform="translate(708,478)"/>
<path d="M0 0 C0.33 0 0.66 0 1 0 C1 2.64 1 5.28 1 8 C3.97 8 6.94 8 10 8 C10 8.33 10 8.66 10 9 C9.236875 9.12375 8.47375 9.2475 7.6875 9.375 C4.79732864 9.88102792 4.79732864 9.88102792 2 12 C2 11.34 2 10.68 2 10 C1.34 9.67 0.68 9.34 0 9 C-1.25 6.125 -1.25 6.125 -2 3 C-1.34 2.01 -0.68 1.02 0 0 Z " fill="#9B9A98" transform="translate(700,579)"/>
<path d="M0 0 C1.5843317 0.08768248 3.16753567 0.19587329 4.75 0.3125 C6.07257812 0.39951172 6.07257812 0.39951172 7.421875 0.48828125 C10.32303774 1.0641181 11.79225607 2.07596148 14 4 C4.41885965 4.56359649 4.41885965 4.56359649 0 1 C0 0.67 0 0.34 0 0 Z " fill="#767573" transform="translate(605,585)"/>
<path d="M0 0 C-1.3125 2.125 -1.3125 2.125 -4 4 C-7.76939621 3.75051478 -11.34542416 2.93254694 -15 2 C-15 1.67 -15 1.34 -15 1 C-13.43784452 0.83013455 -11.8752548 0.66426036 -10.3125 0.5 C-9.44238281 0.4071875 -8.57226562 0.314375 -7.67578125 0.21875 C-5.10276661 0.00840136 -2.58015636 -0.03719144 0 0 Z " fill="#81807E" transform="translate(911,578)"/>
<path d="M0 0 C3.39836227 2.26557485 3.64898488 3.30722534 5 7 C5.99 8.485 5.99 8.485 7 10 C4.625 9.3125 4.625 9.3125 2 8 C0.6875 5.375 0.6875 5.375 0 3 C-0.66 3 -1.32 3 -2 3 C-2 2.34 -2 1.68 -2 1 C-1.34 0.67 -0.68 0.34 0 0 Z " fill="#868584" transform="translate(542,566)"/>
<path d="M0 0 C1.23593891 3.70781672 0.5678132 4.67510253 -0.9375 8.1875 C-1.31777344 9.08855469 -1.69804688 9.98960937 -2.08984375 10.91796875 C-2.54037109 11.94857422 -2.54037109 11.94857422 -3 13 C-3.33 13 -3.66 13 -4 13 C-3.85831863 11.56208484 -3.71148957 10.1246763 -3.5625 8.6875 C-3.48128906 7.88699219 -3.40007813 7.08648437 -3.31640625 6.26171875 C-3 4 -3 4 -2 1 C-1.34 0.67 -0.68 0.34 0 0 Z " fill="#7D7C7A" transform="translate(693,454)"/>
<path d="M0 0 C2.46800047 1.15173355 4.04783565 2.04783565 6 4 C6.625 6.625 6.625 6.625 7 9 C6.01 9 5.02 9 4 9 C3.67 8.01 3.34 7.02 3 6 C2.01 5.34 1.02 4.68 0 4 C0.66 4 1.32 4 2 4 C1.34 2.68 0.68 1.36 0 0 Z " fill="#72716F" transform="translate(859,545)"/>
<path d="M0 0 C0.33 0 0.66 0 1 0 C1.66 1.98 2.32 3.96 3 6 C3.33 6 3.66 6 4 6 C3.67 9.63 3.34 13.26 3 17 C2.67 17 2.34 17 2 17 C-0.29612756 5.47835991 -0.29612756 5.47835991 0 0 Z " fill="#3ECCE5" transform="translate(338,533)"/>
<path d="M0 0 C2.64 0 5.28 0 8 0 C8 0.33 8 0.66 8 1 C6.88625 1.2475 5.7725 1.495 4.625 1.75 C1.04417157 2.61840032 1.04417157 2.61840032 -0.375 4.75 C-1.13378951 7.48164222 -1.61710589 10.19210988 -2 13 C-2.33 13 -2.66 13 -3 13 C-3.31563182 7.73946963 -2.66590937 4.55426184 0 0 Z " fill="#91908E" transform="translate(549,526)"/>
<path d="M0 0 C0.33 0.99 0.66 1.98 1 3 C1.66 3 2.32 3 3 3 C3 7.95 3 12.9 3 18 C2.67 18 2.34 18 2 18 C1.6603981 16.12612523 1.32861309 14.25083303 1 12.375 C0.7215625 10.80878906 0.7215625 10.80878906 0.4375 9.2109375 C0.01284203 6.09425135 -0.07545206 3.14069188 0 0 Z " fill="#36CEEA" transform="translate(327,464)"/>
<path d="M0 0 C0.66 0.33 1.32 0.66 2 1 C2.33333333 2.66666667 2.66666667 4.33333333 3 6 C3.66 6.33 4.32 6.66 5 7 C3.68 8.32 2.36 9.64 1 11 C-0.98362069 8.08291076 -0.9876191 6.87619096 -0.625 3.25 C-0.41875 2.1775 -0.2125 1.105 0 0 Z " fill="#838382" transform="translate(841,542)"/>
<path d="M0 0 C0.33 0 0.66 0 1 0 C1.87890625 6.15234375 1.87890625 6.15234375 2 8 C1.67 8.33 1.34 8.66 1 9 C1.061875 10.423125 1.061875 10.423125 1.125 11.875 C1 15 1 15 -0.5078125 16.6953125 C-1.00023437 17.12585938 -1.49265625 17.55640625 -2 18 C-1.48758893 11.97099313 -0.930215 5.97995357 0 0 Z " fill="#45CAE4" transform="translate(300,406)"/>
<path d="M0 0 C0.33 0 0.66 0 1 0 C3.14285714 7.42857143 3.14285714 7.42857143 4 11 C2.0625 10.5 2.0625 10.5 0 9 C-0.76128 6.26734566 -0.86331619 3.87035995 -1 1 C-0.67 0.67 -0.34 0.34 0 0 Z " fill="#6B6B69" transform="translate(669,573)"/>
<path d="M0 0 C2.64 0 5.28 0 8 0 C8 1.98 8 3.96 8 6 C7.34 6 6.68 6 6 6 C6 4.68 6 3.36 6 2 C4.02 2 2.04 2 0 2 C0 1.34 0 0.68 0 0 Z " fill="#5A5A58" transform="translate(833,538)"/>
<path d="M0 0 C4.31392226 0.4793247 6.16569547 1.7457985 9 5 C7.68 5.33 6.36 5.66 5 6 C4.67 5.34 4.34 4.68 4 4 C2.35636866 3.27840576 0.68949614 2.60648579 -1 2 C-0.67 1.34 -0.34 0.68 0 0 Z " fill="#717270" transform="translate(441,519)"/>
<path d="M0 0 C1.45606519 4.52092968 0.27032841 7.51648796 -1 12 C-1.33 12 -1.66 12 -2 12 C-2 8.37 -2 4.74 -2 1 C-1.34 0.67 -0.68 0.34 0 0 Z " fill="#5D5E5D" transform="translate(776,552)"/>
<path d="M0 0 C0.33 0.99 0.66 1.98 1 3 C1.33 3.66 1.66 4.32 2 5 C1.01 6.485 1.01 6.485 0 8 C-0.66 8 -1.32 8 -2 8 C-2.66 6.35 -3.32 4.7 -4 3 C-2.68 2.01 -1.36 1.02 0 0 Z " fill="#585756" transform="translate(698,575)"/>
<path d="M0 0 C3.91402949 1.26941497 5.79072873 2.51167694 8 6 C7.01 6.33 6.02 6.66 5 7 C4.38125 6.34 3.7625 5.68 3.125 5 C1.24362573 2.7715451 1.24362573 2.7715451 -1 3 C-0.67 2.01 -0.34 1.02 0 0 Z " fill="#757573" transform="translate(467,507)"/>
<path d="M0 0 C0.66 0.33 1.32 0.66 2 1 C1.67 4.96 1.34 8.92 1 13 C0.67 13 0.34 13 0 13 C-0.19466332 11.20909747 -0.38051213 9.41723495 -0.5625 7.625 C-0.66691406 6.62726563 -0.77132813 5.62953125 -0.87890625 4.6015625 C-1 2 -1 2 0 0 Z " fill="#2DCAE7" transform="translate(307,454)"/>
<path d="M0 0 C0.66 0 1.32 0 2 0 C3.59138085 4.17737474 4.21278058 7.53160785 4 12 C1.21366885 7.82050327 0 5.06624674 0 0 Z " fill="#868482" transform="translate(657,453)"/>
<path d="M0 0 C-3.20336822 2.83374881 -5.78087253 3.5205537 -10 4 C-9.34 3.67 -8.68 3.34 -8 3 C-8 2.34 -8 1.68 -8 1 C-4.93251126 -0.86240388 -3.40254489 -1.2151946 0 0 Z " fill="#81807D" transform="translate(630,584)"/>
<path d="M0 0 C0.66 0 1.32 0 2 0 C3.5625 2.8125 3.5625 2.8125 5 6 C4.67 6.99 4.34 7.98 4 9 C0 3.375 0 3.375 0 0 Z " fill="#757574" transform="translate(775,571)"/>
<path d="M0 0 C2.89932357 2.39509338 3.50168276 4.31245243 4 8 C3.01 8 2.02 8 1 8 C0.67 5.36 0.34 2.72 0 0 Z " fill="#757472" transform="translate(571,530)"/>
<path d="M0 0 C0.33 0 0.66 0 1 0 C0.67 3.96 0.34 7.92 0 12 C-2.1519437 8.77208445 -2.20086443 7.71599191 -2 4 C-1.34 4 -0.68 4 0 4 C0 2.68 0 1.36 0 0 Z " fill="#32CEE8" transform="translate(291,573)"/>
<path d="M0 0 C3.63 1.32 7.26 2.64 11 4 C7.66507467 4.83373133 5.36512103 5.26566745 2 5 C1.34 4.34 0.68 3.68 0 3 C0 2.01 0 1.02 0 0 Z " fill="#8A8987" transform="translate(893,553)"/>
<path d="M0 0 C3.37503669 1.1858237 5.64722731 2.27573689 8 5 C5.69 4.67 3.38 4.34 1 4 C0.67 2.68 0.34 1.36 0 0 Z " fill="#7E7C7B" transform="translate(569,518)"/>
<path d="M0 0 C3.2542015 2.83430453 4.5206753 4.68607774 5 9 C4.67 8.34 4.34 7.68 4 7 C3.34 7 2.68 7 2 7 C0 4 0 4 0 0 Z " fill="#7F7E7C" transform="translate(642,446)"/>
<path d="M0 0 C0.66 0.33 1.32 0.66 2 1 C1.7452486 2.31571603 1.47065859 3.62760376 1.1875 4.9375 C1.03667969 5.66839844 0.88585937 6.39929688 0.73046875 7.15234375 C0.48941406 7.76207031 0.24835937 8.37179687 0 9 C-0.99 9.33 -1.98 9.66 -3 10 C-2.69201674 8.51988629 -2.378482 7.04092675 -2.0625 5.5625 C-1.88847656 4.73878906 -1.71445312 3.91507812 -1.53515625 3.06640625 C-1 1 -1 1 0 0 Z " fill="#5A5958" transform="translate(697,440)"/>
<path d="M0 0 C0.33 0 0.66 0 1 0 C1 1.98 1 3.96 1 6 C1.66 6 2.32 6 3 6 C1.89131683 8.21736634 0.50559539 10.03617993 -1 12 C-1 11.01 -1 10.02 -1 9 C-1.66 8.67 -2.32 8.34 -3 8 C-2.34 8 -1.68 8 -1 8 C-0.67 5.36 -0.34 2.72 0 0 Z " fill="#43C9E2" transform="translate(302,394)"/>
<path d="M0 0 C-5.2734375 3.22265625 -5.2734375 3.22265625 -7 4 C-7.66 3.67 -8.32 3.34 -9 3 C-5.83583464 -0.30799106 -4.50236011 -1.35070803 0 0 Z " fill="#7B7B79" transform="translate(471,582)"/>
<path d="M0 0 C0.33 0.66 0.66 1.32 1 2 C1.66 2 2.32 2 3 2 C2.25 7.75 2.25 7.75 0 10 C0 6.7 0 3.4 0 0 Z " fill="#787877" transform="translate(484,555)"/>
<path d="M0 0 C0.33 0 0.66 0 1 0 C0.67 3.96 0.34 7.92 0 12 C-0.33 12 -0.66 12 -1 12 C-1.33 8.7 -1.66 5.4 -2 2 C-1.34 2 -0.68 2 0 2 C0 1.34 0 0.68 0 0 Z " fill="#40CBE7" transform="translate(295,546)"/>
<path d="M0 0 C0 4.38968456 -2.12805101 5.76905739 -5 9 C-5.33 7.68 -5.66 6.36 -6 5 C-4.02 3.35 -2.04 1.7 0 0 Z " fill="#5A5958" transform="translate(783,542)"/>
<path d="M0 0 C0.66 0.33 1.32 0.66 2 1 C1.34 2.32 0.68 3.64 0 5 C-0.99 5 -1.98 5 -3 5 C-3.99 5.66 -4.98 6.32 -6 7 C-4.60667426 3.63279613 -3.0210714 2.0140476 0 0 Z " fill="#858584" transform="translate(785,539)"/>
<path d="M0 0 C0.33 0 0.66 0 1 0 C0.67 4.29 0.34 8.58 0 13 C-0.33 13 -0.66 13 -1 13 C-1.33 10.03 -1.66 7.06 -2 4 C-1.34 4 -0.68 4 0 4 C0 2.68 0 1.36 0 0 Z " fill="#47CDE8" transform="translate(311,434)"/>
<path d="M0 0 C3.65316671 1.24976756 4.78065836 1.67098753 7 5 C3.31245243 4.50168276 1.39509338 3.89932357 -1 1 C-0.67 0.67 -0.34 0.34 0 0 Z " fill="#7A7977" transform="translate(625,538)"/>
<path d="M0 0 C0.99 0.33 1.98 0.66 3 1 C2.67 4.3 2.34 7.6 2 11 C1.67 11 1.34 11 1 11 C0.67 7.37 0.34 3.74 0 0 Z " fill="#3ACAE6" transform="translate(323,440)"/>
<path d="M0 0 C2.99324263 1.0975223 3.84610901 1.67682892 5.25 4.625 C5.4975 5.40875 5.745 6.1925 6 7 C1.2 4.53846154 1.2 4.53846154 0.1875 1.8125 C0.125625 1.214375 0.06375 0.61625 0 0 Z " fill="#7D7D7B" transform="translate(583,428)"/>
<path d="M0 0 C2.31 0.33 4.62 0.66 7 1 C6.01 2.485 6.01 2.485 5 4 C3.0625 3.6875 3.0625 3.6875 1 3 C0.67 2.01 0.34 1.02 0 0 Z " fill="#7F7E7C" transform="translate(567,420)"/>
<path d="M0 0 C0.99 0 1.98 0 3 0 C2.67 1.32 2.34 2.64 2 4 C1.34 2.68 0.68 1.36 0 0 Z " fill="#91928F" transform="translate(720,548)"/>
<path d="M0 0 C0.33 0 0.66 0 1 0 C1 2.64 1 5.28 1 8 C0.67 8 0.34 8 0 8 C0 5.36 0 2.72 0 0 Z " fill="#5ABACF" transform="translate(288,472)"/>
<path d="M0 0 C0.33 0 0.66 0 1 0 C1 1.98 1 3.96 1 6 C0.67 6 0.34 6 0 6 C0 4.02 0 2.04 0 0 Z " fill="#91908F" transform="translate(722,570)"/>
<path d="M0 0 C0.33 0 0.66 0 1 0 C1 1.98 1 3.96 1 6 C0.67 6 0.34 6 0 6 C0 4.02 0 2.04 0 0 Z " fill="#61ABBD" transform="translate(359,554)"/>
<path d="M0 0 C0.33 0 0.66 0 1 0 C1 1.65 1 3.3 1 5 C0.67 5 0.34 5 0 5 C0 3.35 0 1.7 0 0 Z " fill="#44C8E1" transform="translate(338,544)"/>
<path d="M0 0 C1.65 0 3.3 0 5 0 C5 0.33 5 0.66 5 1 C3.35 1 1.7 1 0 1 C0 0.67 0 0.34 0 0 Z " fill="#92908E" transform="translate(560,492)"/>
<path d="M0 0 C0.33 0 0.66 0 1 0 C1 1.65 1 3.3 1 5 C0.67 5 0.34 5 0 5 C0 3.35 0 1.7 0 0 Z " fill="#3EC9E3" transform="translate(311,449)"/>
<path d="M0 0 C1 4 1 4 1 4 Z " fill="#8E8E8C" transform="translate(711,578)"/>
<path d="M0 0 C1 4 1 4 1 4 Z " fill="#908F8D" transform="translate(711,569)"/>
<path d="M0 0 C1 4 1 4 1 4 Z " fill="#4AC9E1" transform="translate(337,539)"/>
<path d="M0 0 C1 4 1 4 1 4 Z " fill="#45CAE2" transform="translate(336,532)"/>
<path d="M0 0 C1 4 1 4 1 4 Z " fill="#62B3C4" transform="translate(281,523)"/>
<path d="M0 0 C1 4 1 4 1 4 Z " fill="#5FB9CE" transform="translate(351,506)"/>
<path d="M0 0 C0.99 0 1.98 0 3 0 C2.67 0.66 2.34 1.32 2 2 C1.34 1.34 0.68 0.68 0 0 Z " fill="#918E8B" transform="translate(633,456)"/>
<path d="" fill="#959593" transform="translate(0,0)"/>
<path d="" fill="#949491" transform="translate(0,0)"/>
<path d="" fill="#58C3D6" transform="translate(0,0)"/>
<path d="" fill="#959391" transform="translate(0,0)"/>
<path d="" fill="#48C3DE" transform="translate(0,0)"/>
<path d="" fill="#55BFD5" transform="translate(0,0)"/>
<path d="M0 0 C3 1 3 1 3 1 Z " fill="#8F8E8E" transform="translate(842,536)"/>
<path d="" fill="#41CBE4" transform="translate(0,0)"/>
<path d="M0 0 C3 1 3 1 3 1 Z " fill="#8F8D8B" transform="translate(643,474)"/>
<path d="" fill="#59C1D5" transform="translate(0,0)"/>
<path d="" fill="#56C2D4" transform="translate(0,0)"/>
<path d="" fill="#55BDD5" transform="translate(0,0)"/>
<path d="M0 0 C0.66 0.66 1.32 1.32 2 2 C1.34 2 0.68 2 0 2 C0 1.34 0 0.68 0 0 Z " fill="#8A8886" transform="translate(576,437)"/>
<path d="M0 0 C2 1 2 1 2 1 Z " fill="#918E8C" transform="translate(835,589)"/>
<path d="" fill="#92928F" transform="translate(0,0)"/>
<path d="M0 0 C2 1 2 1 2 1 Z " fill="#908F8C" transform="translate(744,576)"/>
<path d="" fill="#48C6DF" transform="translate(0,0)"/>
<path d="" fill="#908E8D" transform="translate(0,0)"/>
<path d="" fill="#74B2BE" transform="translate(0,0)"/>
<path d="" fill="#55C3D6" transform="translate(0,0)"/>
<path d="" fill="#8F8F8C" transform="translate(0,0)"/>
<path d="M0 0 C2 1 2 1 2 1 Z " fill="#828381" transform="translate(420,564)"/>
<path d="" fill="#76AEB9" transform="translate(0,0)"/>
<path d="" fill="#908F8B" transform="translate(0,0)"/>
<path d="" fill="#55C2D5" transform="translate(0,0)"/>
<path d="" fill="#949491" transform="translate(0,0)"/>
<path d="" fill="#908E8B" transform="translate(0,0)"/>
<path d="" fill="#8F8E8C" transform="translate(0,0)"/>
<path d="" fill="#91908E" transform="translate(0,0)"/>
<path d="" fill="#908E8D" transform="translate(0,0)"/>
<path d="M0 0 C2 1 2 1 2 1 Z " fill="#908E8C" transform="translate(801,547)"/>
<path d="M0 0 C2 1 2 1 2 1 Z " fill="#929391" transform="translate(752,541)"/>
<path d="M0 0 C2 1 2 1 2 1 Z " fill="#8C8A8A" transform="translate(843,538)"/>
<path d="M0 0 C2 1 2 1 2 1 Z " fill="#8F8D8A" transform="translate(748,537)"/>
<path d="M0 0 C2 1 2 1 2 1 Z " fill="#8F8F8C" transform="translate(627,537)"/>
<path d="" fill="#62B1C2" transform="translate(0,0)"/>
<path d="" fill="#8D8C8A" transform="translate(0,0)"/>
<path d="" fill="#5AB9CC" transform="translate(0,0)"/>
<path d="" fill="#3FC5E1" transform="translate(0,0)"/>
<path d="" fill="#41CAE4" transform="translate(0,0)"/>
<path d="M0 0 C2 1 2 1 2 1 Z " fill="#949391" transform="translate(545,492)"/>
<path d="M0 0 C2 1 2 1 2 1 Z " fill="#92918E" transform="translate(537,492)"/>
<path d="" fill="#7D9BA0" transform="translate(0,0)"/>
<path d="" fill="#41CBE6" transform="translate(0,0)"/>
<path d="M0 0 C2 1 2 1 2 1 Z " fill="#56C0D5" transform="translate(290,456)"/>
<path d="" fill="#3DCCE6" transform="translate(0,0)"/>
<path d="" fill="#8F8E8C" transform="translate(0,0)"/>
<path d="M0 0 C2 1 2 1 2 1 Z " fill="#817F7F" transform="translate(432,447)"/>
<path d="" fill="#55BFD5" transform="translate(0,0)"/>
<path d="" fill="#55C0D6" transform="translate(0,0)"/>
<path d="" fill="#41CDE7" transform="translate(0,0)"/>
<path d="" fill="#54C5DA" transform="translate(0,0)"/>
<path d="" fill="#52C5DB" transform="translate(0,0)"/>
<path d="" fill="#4EC5DC" transform="translate(0,0)"/>
<path d="" fill="#50C5DB" transform="translate(0,0)"/>
<path d="" fill="#52C7DD" transform="translate(0,0)"/>
<path d="" fill="#4C4D4B" transform="translate(0,0)"/>
<path d="" fill="#67BFCE" transform="translate(0,0)"/>
<path d="" fill="#6CBECB" transform="translate(0,0)"/>
<path d="" fill="#6CBECD" transform="translate(0,0)"/>
<path d="" fill="#6DBFCD" transform="translate(0,0)"/>
<path d="" fill="#92928F" transform="translate(0,0)"/>
<path d="" fill="#8B8A86" transform="translate(0,0)"/>
<path d="" fill="#8D8B88" transform="translate(0,0)"/>
<path d="" fill="#60BFCE" transform="translate(0,0)"/>
<path d="" fill="#908D8C" transform="translate(0,0)"/>
<path d="" fill="#908F8C" transform="translate(0,0)"/>
<path d="" fill="#8F8E8D" transform="translate(0,0)"/>
<path d="" fill="#8F8F8C" transform="translate(0,0)"/>
<path d="" fill="#92908E" transform="translate(0,0)"/>
<path d="" fill="#90908C" transform="translate(0,0)"/>
<path d="" fill="#8D8D8A" transform="translate(0,0)"/>
<path d="" fill="#64BECA" transform="translate(0,0)"/>
<path d="" fill="#908F8D" transform="translate(0,0)"/>
<path d="" fill="#908E8B" transform="translate(0,0)"/>
<path d="" fill="#92908E" transform="translate(0,0)"/>
<path d="" fill="#8F8E8E" transform="translate(0,0)"/>
<path d="" fill="#94938F" transform="translate(0,0)"/>
<path d="" fill="#91908E" transform="translate(0,0)"/>
<path d="" fill="#918F8F" transform="translate(0,0)"/>
<path d="" fill="#54C9DF" transform="translate(0,0)"/>
<path d="" fill="#92918E" transform="translate(0,0)"/>
<path d="" fill="#90908D" transform="translate(0,0)"/>
<path d="" fill="#8C8A8A" transform="translate(0,0)"/>
<path d="" fill="#908F8D" transform="translate(0,0)"/>
<path d="" fill="#918E8C" transform="translate(0,0)"/>
<path d="" fill="#5CBDCD" transform="translate(0,0)"/>
<path d="" fill="#918E8E" transform="translate(0,0)"/>
<path d="" fill="#93908D" transform="translate(0,0)"/>
<path d="" fill="#918F8C" transform="translate(0,0)"/>
<path d="" fill="#5EC1CE" transform="translate(0,0)"/>
<path d="" fill="#8D8B8A" transform="translate(0,0)"/>
<path d="" fill="#8B8885" transform="translate(0,0)"/>
<path d="" fill="#8F918C" transform="translate(0,0)"/>
<path d="" fill="#8F8D88" transform="translate(0,0)"/>
<path d="" fill="#949491" transform="translate(0,0)"/>
<path d="" fill="#51C8DF" transform="translate(0,0)"/>
<path d="" fill="#8F8C8A" transform="translate(0,0)"/>
<path d="" fill="#8F8E8A" transform="translate(0,0)"/>
<path d="" fill="#8F8E8D" transform="translate(0,0)"/>
<path d="" fill="#8F8D8A" transform="translate(0,0)"/>
<path d="" fill="#918F8F" transform="translate(0,0)"/>
<path d="" fill="#93918E" transform="translate(0,0)"/>
<path d="" fill="#8F8C8B" transform="translate(0,0)"/>
<path d="" fill="#4DC9DF" transform="translate(0,0)"/>
<path d="" fill="#8E8C89" transform="translate(0,0)"/>
<path d="" fill="#91918E" transform="translate(0,0)"/>
<path d="" fill="#91908E" transform="translate(0,0)"/>
<path d="" fill="#878684" transform="translate(0,0)"/>
<path d="" fill="#8F8D8A" transform="translate(0,0)"/>
<path d="" fill="#4BC9E0" transform="translate(0,0)"/>
<path d="" fill="#908F8E" transform="translate(0,0)"/>
<path d="" fill="#4BC9E0" transform="translate(0,0)"/>
<path d="" fill="#8D8B88" transform="translate(0,0)"/>
<path d="" fill="#92908E" transform="translate(0,0)"/>
<path d="" fill="#858786" transform="translate(0,0)"/>
<path d="" fill="#868785" transform="translate(0,0)"/>
<path d="" fill="#918F8F" transform="translate(0,0)"/>
<path d="" fill="#928E8E" transform="translate(0,0)"/>
<path d="" fill="#8E8D8C" transform="translate(0,0)"/>
<path d="" fill="#8D8E89" transform="translate(0,0)"/>
<path d="" fill="#76ADB6" transform="translate(0,0)"/>
<path d="" fill="#59C0D3" transform="translate(0,0)"/>
<path d="" fill="#93938F" transform="translate(0,0)"/>
<path d="" fill="#92918E" transform="translate(0,0)"/>
<path d="" fill="#908E8C" transform="translate(0,0)"/>
<path d="" fill="#93918E" transform="translate(0,0)"/>
<path d="" fill="#4AC8E1" transform="translate(0,0)"/>
<path d="" fill="#938F8D" transform="translate(0,0)"/>
<path d="" fill="#4AC8E1" transform="translate(0,0)"/>
<path d="" fill="#93928D" transform="translate(0,0)"/>
<path d="" fill="#92908C" transform="translate(0,0)"/>
<path d="" fill="#868684" transform="translate(0,0)"/>
<path d="" fill="#49CAE0" transform="translate(0,0)"/>
<path d="" fill="#928F8E" transform="translate(0,0)"/>
<path d="" fill="#91908D" transform="translate(0,0)"/>
<path d="" fill="#848582" transform="translate(0,0)"/>
<path d="" fill="#48C9E1" transform="translate(0,0)"/>
<path d="" fill="#898886" transform="translate(0,0)"/>
<path d="" fill="#8D8C89" transform="translate(0,0)"/>
<path d="" fill="#908F8E" transform="translate(0,0)"/>
<path d="" fill="#8A8986" transform="translate(0,0)"/>
<path d="" fill="#928F8B" transform="translate(0,0)"/>
<path d="" fill="#45C6E0" transform="translate(0,0)"/>
<path d="" fill="#928F8E" transform="translate(0,0)"/>
<path d="" fill="#908D8B" transform="translate(0,0)"/>
<path d="" fill="#8A8B87" transform="translate(0,0)"/>
<path d="" fill="#969493" transform="translate(0,0)"/>
<path d="" fill="#898583" transform="translate(0,0)"/>
<path d="" fill="#918F8D" transform="translate(0,0)"/>
<path d="" fill="#8D8E89" transform="translate(0,0)"/>
<path d="" fill="#8D8D87" transform="translate(0,0)"/>
<path d="" fill="#8E8C8A" transform="translate(0,0)"/>
<path d="" fill="#68B0C2" transform="translate(0,0)"/>
<path d="" fill="#8C8B89" transform="translate(0,0)"/>
<path d="" fill="#90908E" transform="translate(0,0)"/>
<path d="" fill="#81807E" transform="translate(0,0)"/>
<path d="" fill="#8D8F8C" transform="translate(0,0)"/>
<path d="" fill="#929591" transform="translate(0,0)"/>
<path d="" fill="#908D8B" transform="translate(0,0)"/>
<path d="" fill="#929392" transform="translate(0,0)"/>
<path d="" fill="#46CAE3" transform="translate(0,0)"/>
<path d="" fill="#8F8E8D" transform="translate(0,0)"/>
<path d="" fill="#93918E" transform="translate(0,0)"/>
<path d="" fill="#8F8C89" transform="translate(0,0)"/>
<path d="" fill="#64B0C2" transform="translate(0,0)"/>
<path d="" fill="#8B8A89" transform="translate(0,0)"/>
<path d="" fill="#95928F" transform="translate(0,0)"/>
<path d="" fill="#45CBE3" transform="translate(0,0)"/>
<path d="" fill="#928E8C" transform="translate(0,0)"/>
<path d="" fill="#898988" transform="translate(0,0)"/>
<path d="" fill="#908F8C" transform="translate(0,0)"/>
<path d="" fill="#918F8E" transform="translate(0,0)"/>
<path d="" fill="#8C8C8C" transform="translate(0,0)"/>
<path d="" fill="#8B8A86" transform="translate(0,0)"/>
<path d="" fill="#918D89" transform="translate(0,0)"/>
<path d="" fill="#63B0C2" transform="translate(0,0)"/>
<path d="" fill="#90908D" transform="translate(0,0)"/>
<path d="" fill="#939390" transform="translate(0,0)"/>
<path d="" fill="#8D8D8B" transform="translate(0,0)"/>
<path d="" fill="#5EBACF" transform="translate(0,0)"/>
<path d="" fill="#8B8B8A" transform="translate(0,0)"/>
<path d="" fill="#48CBE6" transform="translate(0,0)"/>
<path d="" fill="#848482" transform="translate(0,0)"/>
<path d="" fill="#959490" transform="translate(0,0)"/>
<path d="" fill="#818583" transform="translate(0,0)"/>
<path d="" fill="#64B5C8" transform="translate(0,0)"/>
<path d="" fill="#42CAE3" transform="translate(0,0)"/>
<path d="" fill="#969492" transform="translate(0,0)"/>
<path d="" fill="#40C9E2" transform="translate(0,0)"/>
<path d="" fill="#3EC9E4" transform="translate(0,0)"/>
<path d="" fill="#41CCE6" transform="translate(0,0)"/>
<path d="" fill="#60BBCE" transform="translate(0,0)"/>
<path d="" fill="#64BACC" transform="translate(0,0)"/>
<path d="" fill="#5FBCCE" transform="translate(0,0)"/>
<path d="" fill="#41CAE4" transform="translate(0,0)"/>
<path d="" fill="#959392" transform="translate(0,0)"/>
<path d="" fill="#918E8D" transform="translate(0,0)"/>
<path d="" fill="#939190" transform="translate(0,0)"/>
<path d="" fill="#949291" transform="translate(0,0)"/>
<path d="" fill="#949290" transform="translate(0,0)"/>
<path d="" fill="#92928F" transform="translate(0,0)"/>
<path d="" fill="#5CBCCF" transform="translate(0,0)"/>
<path d="" fill="#908E8E" transform="translate(0,0)"/>
<path d="" fill="#8D8B8B" transform="translate(0,0)"/>
<path d="" fill="#3EC9E5" transform="translate(0,0)"/>
<path d="" fill="#929492" transform="translate(0,0)"/>
<path d="" fill="#44CBE3" transform="translate(0,0)"/>
<path d="" fill="#928F8E" transform="translate(0,0)"/>
<path d="" fill="#878784" transform="translate(0,0)"/>
<path d="" fill="#5ABBCF" transform="translate(0,0)"/>
<path d="" fill="#8E8C89" transform="translate(0,0)"/>
<path d="" fill="#918C8A" transform="translate(0,0)"/>
<path d="" fill="#8F8E8D" transform="translate(0,0)"/>
<path d="" fill="#7D9BA2" transform="translate(0,0)"/>
<path d="" fill="#908E8D" transform="translate(0,0)"/>
<path d="" fill="#8C8D8C" transform="translate(0,0)"/>
<path d="" fill="#8A8A86" transform="translate(0,0)"/>
<path d="" fill="#3ECAE4" transform="translate(0,0)"/>
<path d="" fill="#868685" transform="translate(0,0)"/>
<path d="" fill="#94928C" transform="translate(0,0)"/>
<path d="" fill="#5CBBD1" transform="translate(0,0)"/>
<path d="" fill="#7E9CA1" transform="translate(0,0)"/>
<path d="" fill="#92918C" transform="translate(0,0)"/>
<path d="" fill="#91908E" transform="translate(0,0)"/>
<path d="" fill="#8E908C" transform="translate(0,0)"/>
<path d="" fill="#8F8D8C" transform="translate(0,0)"/>
<path d="" fill="#8C8988" transform="translate(0,0)"/>
<path d="" fill="#858483" transform="translate(0,0)"/>
<path d="" fill="#5CBCD3" transform="translate(0,0)"/>
<path d="" fill="#42CDE7" transform="translate(0,0)"/>
<path d="" fill="#41CCE6" transform="translate(0,0)"/>
<path d="" fill="#5BBDD0" transform="translate(0,0)"/>
<path d="" fill="#40C9E4" transform="translate(0,0)"/>
<path d="" fill="#4FC1D7" transform="translate(0,0)"/>
<path d="" fill="#91908C" transform="translate(0,0)"/>
<path d="" fill="#8F8D8A" transform="translate(0,0)"/>
<path d="" fill="#92908E" transform="translate(0,0)"/>
<path d="" fill="#908E8D" transform="translate(0,0)"/>
<path d="" fill="#42CDE5" transform="translate(0,0)"/>
<path d="" fill="#43C9E4" transform="translate(0,0)"/>
<path d="" fill="#8F908E" transform="translate(0,0)"/>
<path d="" fill="#8E8E8C" transform="translate(0,0)"/>
<path d="" fill="#59C1D3" transform="translate(0,0)"/>
<path d="" fill="#8D8A89" transform="translate(0,0)"/>
<path d="" fill="#878785" transform="translate(0,0)"/>
<path d="" fill="#54C2D7" transform="translate(0,0)"/>
<path d="" fill="#8D8B89" transform="translate(0,0)"/>
<path d="" fill="#918E8D" transform="translate(0,0)"/>
<path d="" fill="#838480" transform="translate(0,0)"/>
<path d="" fill="#7D9DA3" transform="translate(0,0)"/>
<path d="" fill="#908C8B" transform="translate(0,0)"/>
<path d="" fill="#91908C" transform="translate(0,0)"/>
<path d="" fill="#56C3D9" transform="translate(0,0)"/>
<path d="" fill="#53C1D7" transform="translate(0,0)"/>
<path d="" fill="#40CCE6" transform="translate(0,0)"/>
<path d="" fill="#868684" transform="translate(0,0)"/>
<path d="" fill="#888A88" transform="translate(0,0)"/>
<path d="" fill="#8B8986" transform="translate(0,0)"/>
<path d="" fill="#40C3DB" transform="translate(0,0)"/>
<path d="" fill="#8C8B8A" transform="translate(0,0)"/>
<path d="" fill="#43CFE7" transform="translate(0,0)"/>
<path d="" fill="#8E8D8B" transform="translate(0,0)"/>
<path d="" fill="#8D8B8A" transform="translate(0,0)"/>
<path d="" fill="#888783" transform="translate(0,0)"/>
<path d="" fill="#45CCE5" transform="translate(0,0)"/>
<path d="" fill="#8F8E8B" transform="translate(0,0)"/>
<path d="" fill="#8E8D8A" transform="translate(0,0)"/>
<path d="" fill="#8E8D8B" transform="translate(0,0)"/>
<path d="" fill="#90908C" transform="translate(0,0)"/>
<path d="" fill="#41CAE6" transform="translate(0,0)"/>
<path d="" fill="#55C0D5" transform="translate(0,0)"/>
<path d="" fill="#50C2D8" transform="translate(0,0)"/>
<path d="" fill="#8E8C8A" transform="translate(0,0)"/>
<path d="" fill="#90908B" transform="translate(0,0)"/>
<path d="" fill="#81A1A8" transform="translate(0,0)"/>
<path d="" fill="#51C2DB" transform="translate(0,0)"/>
<path d="" fill="#55C5DA" transform="translate(0,0)"/>
<path d="" fill="#7DA5AD" transform="translate(0,0)"/>
<path d="" fill="#81A6AE" transform="translate(0,0)"/>
<path d="" fill="#8E8D8C" transform="translate(0,0)"/>
<path d="" fill="#7F9DA1" transform="translate(0,0)"/>
<path d="" fill="#8D9092" transform="translate(0,0)"/>
<path d="" fill="#44CBE8" transform="translate(0,0)"/>
<path d="" fill="#3FC9E2" transform="translate(0,0)"/>
<path d="" fill="#4EC6DD" transform="translate(0,0)"/>
<path d="" fill="#54C4DA" transform="translate(0,0)"/>
<path d="" fill="#53C5DC" transform="translate(0,0)"/>
<path d="" fill="#4BC5DF" transform="translate(0,0)"/>
<path d="" fill="#4CC7E2" transform="translate(0,0)"/>
<path d="" fill="#52C2DD" transform="translate(0,0)"/>
<path d="" fill="#52C5DC" transform="translate(0,0)"/>
<path d="" fill="#53C5DC" transform="translate(0,0)"/>
<path d="" fill="#4DC5DD" transform="translate(0,0)"/>
<path d="" fill="#4DC7DF" transform="translate(0,0)"/>
<path d="" fill="#4EC7DD" transform="translate(0,0)"/>
<path d="" fill="#50C9E1" transform="translate(0,0)"/>
<path d="" fill="#4DC8DF" transform="translate(0,0)"/>
<path d="" fill="#4CCBE1" transform="translate(0,0)"/>
<path d="" fill="#50C9E1" transform="translate(0,0)"/>
<path d="" fill="#47C1DA" transform="translate(0,0)"/>
<path d="" fill="#4EC2DC" transform="translate(0,0)"/>
<path d="" fill="#4EBFD8" transform="translate(0,0)"/>
<path d="" fill="#51C6DA" transform="translate(0,0)"/>
<path d="" fill="#55C3DC" transform="translate(0,0)"/>
<path d="" fill="#51C8DF" transform="translate(0,0)"/>
<path d="" fill="#53C4DA" transform="translate(0,0)"/>
<path d="" fill="#53C4DB" transform="translate(0,0)"/>
<path d="" fill="#59C1D8" transform="translate(0,0)"/>
<path d="" fill="#5CC1D5" transform="translate(0,0)"/>
</svg>
